<svg width="60" height="60" viewBox="0 0 60 60" fill="none" xmlns="http://www.w3.org/2000/svg">
<path d="M36.0341 17.8597C36.0762 18.0556 36.1565 18.2414 36.2704 18.4063C36.3842 18.5713 36.5294 18.7123 36.6977 18.8211C36.866 18.93 37.0541 19.0046 37.2513 19.0407C37.4485 19.0769 37.6508 19.0738 37.8468 19.0317C38.0428 18.9896 38.2285 18.9092 38.3934 18.7953C39.8274 17.8063 42.3444 17.8063 43.7784 18.7953C45.1025 19.6339 46.6376 20.079 48.2049 20.079C49.7722 20.079 51.3072 19.6339 52.6313 18.7953C52.9644 18.5654 53.1925 18.2125 53.2655 17.8144C53.3385 17.4162 53.2503 17.0054 53.0203 16.6723C52.7904 16.3392 52.4375 16.1111 52.0394 16.0381C51.6413 15.9652 51.2304 16.0534 50.8973 16.2833C49.4634 17.2723 46.9463 17.2723 45.5124 16.2833C43.0309 14.5722 39.1409 14.5722 36.6594 16.2833C36.4944 16.3971 36.3535 16.5423 36.2446 16.7106C36.1357 16.8789 36.0611 17.067 36.025 17.2642C35.9889 17.4614 35.9919 17.6637 36.0341 17.8597Z" fill="#0C674B"/>
<path d="M45.5124 24.4193C46.9463 25.4083 49.4634 25.4083 50.8973 24.4193C51.2304 24.1893 51.6413 24.1011 52.0394 24.1741C52.4375 24.247 52.7904 24.4752 53.0203 24.8083C53.2503 25.1414 53.3385 25.5522 53.2655 25.9503C53.1925 26.3484 52.9644 26.7013 52.6313 26.9312C51.3072 27.7698 49.7722 28.215 48.2049 28.215C46.6376 28.215 45.1025 27.7698 43.7784 26.9312C42.3444 25.9422 39.8274 25.9422 38.3934 26.9312C38.2285 27.0451 38.0427 27.1253 37.8468 27.1674C37.6508 27.2095 37.4485 27.2125 37.2514 27.1764C37.0542 27.1403 36.8661 27.0657 36.6978 26.9569C36.5295 26.8481 36.3843 26.7072 36.2704 26.5422C36.1566 26.3773 36.0763 26.1916 36.0343 25.9956C35.9922 25.7996 35.9891 25.5973 36.0253 25.4002C36.0614 25.2031 36.136 25.015 36.2448 24.8467C36.3536 24.6783 36.4945 24.5331 36.6594 24.4193C39.1409 22.7082 43.0309 22.7082 45.5124 24.4193Z" fill="#0C674B"/>
<path fill-rule="evenodd" clip-rule="evenodd" d="M14.9408 2.511C13.3331 4.11877 12.4298 6.29937 12.4298 8.57309V32.6849C9.80863 34.5101 7.83834 37.1242 6.80571 40.1467C5.77308 43.1692 5.73201 46.4423 6.68848 49.4898C7.64496 52.5373 9.54905 55.1999 12.1236 57.0903C14.6982 58.9806 17.8089 60 21.0029 60C24.1969 60 27.3076 58.9806 29.8822 57.0903C32.4568 55.1999 34.3609 52.5373 35.3173 49.4898C36.2738 46.4423 36.2328 43.1692 35.2001 40.1467C34.1675 37.1242 32.1972 34.5101 29.576 32.6849V8.57309C29.576 6.29937 28.6728 4.11877 27.065 2.511C25.4572 0.903234 23.2766 0 21.0029 0C18.7292 0 16.5486 0.903234 14.9408 2.511ZM22.5028 8.57309C22.5028 7.74467 21.8313 7.07309 21.0028 7.07309C20.1744 7.07309 19.5028 7.74467 19.5028 8.57309V37.2206C15.8405 37.9217 13.073 41.142 13.073 45.0087C13.073 49.3883 16.6233 52.9386 21.0028 52.9386C25.3824 52.9386 28.9327 49.3883 28.9327 45.0087C28.9327 41.142 26.1651 37.9217 22.5028 37.2206V8.57309ZM16.073 45.0087C16.073 42.2861 18.2802 40.0789 21.0028 40.0789C23.7255 40.0789 25.9327 42.2861 25.9327 45.0087C25.9327 47.7314 23.7255 49.9386 21.0028 49.9386C18.2802 49.9386 16.073 47.7314 16.073 45.0087Z" fill="#0C674B"/>
</svg>
