<svg width="60" height="60" viewBox="0 0 60 60" fill="none" xmlns="http://www.w3.org/2000/svg">
<path fill-rule="evenodd" clip-rule="evenodd" d="M30 3C31.0606 3 32.0777 3.41995 32.8278 4.1675L41.999 13.3109V8.15505C41.999 7.62627 42.2097 7.11914 42.5847 6.74524C42.9598 6.37133 43.4684 6.16127 43.9988 6.16127H47.9985C48.5289 6.16127 49.0375 6.37133 49.4126 6.74524C49.7876 7.11914 49.9983 7.62627 49.9983 8.15505V21.286L59.4135 30.6687C59.789 31.0431 60 31.5509 60 32.0803C60 32.6098 59.789 33.1176 59.4135 33.4919C59.038 33.8663 58.5287 34.0766 57.9976 34.0766C57.4666 34.0766 56.9573 33.8663 56.5818 33.4919L30 6.9867L3.41824 33.4919C3.2323 33.6773 3.01156 33.8244 2.76863 33.9247C2.52569 34.025 2.26531 34.0766 2.00236 34.0766C1.4713 34.0766 0.961992 33.8663 0.586477 33.4919C0.400541 33.3066 0.253048 33.0865 0.15242 32.8443C0.0517925 32.6021 0 32.3425 0 32.0803C0 31.8182 0.0517925 31.5586 0.15242 31.3164C0.253048 31.0742 0.400541 30.8541 0.586477 30.6687L27.1722 4.1675C27.9223 3.41995 28.9394 3 30 3ZM53.9955 35.2431L29.9975 11.3178L5.9995 35.2431V52.0187C5.9995 53.605 6.63158 55.1264 7.75671 56.2481C8.88183 57.3698 10.4078 58 11.999 58H47.996C49.5871 58 51.1131 57.3698 52.2382 56.2481C53.3634 55.1264 53.9955 53.605 53.9955 52.0187V35.2431ZM38.482 46.5213C40.7323 44.2778 41.9965 41.2351 41.9965 38.0624C41.9965 34.8897 40.7323 31.847 38.482 29.6035C36.2318 27.3601 33.1798 26.0997 29.9975 26.0997C26.8151 26.0997 23.7632 27.3601 21.5129 29.6035C19.2627 31.847 17.9985 34.8897 17.9985 38.0624C17.9985 41.2351 19.2627 44.2778 21.5129 46.5213C23.7632 48.7647 26.8151 50.025 29.9975 50.025C33.1798 50.025 36.2318 48.7647 38.482 46.5213ZM35.6669 33.2851C35.8073 33.3413 35.9348 33.4251 36.042 33.5315C36.2501 33.7392 36.3697 34.02 36.3725 34.3135C36.3754 34.6071 36.2626 34.89 36.0585 35.1016L30.071 42.5633C29.9681 42.6736 29.844 42.7621 29.706 42.8235C29.5681 42.8849 29.4192 42.918 29.2682 42.9208C29.1171 42.9236 28.9671 42.896 28.827 42.8397C28.6868 42.7835 28.5595 42.6996 28.4526 42.5932L24.4839 38.6351C24.2852 38.4225 24.1771 38.1413 24.1822 37.8508C24.1873 37.5602 24.3054 37.283 24.5115 37.0775C24.7176 36.8721 24.9957 36.7544 25.2871 36.7492C25.5785 36.7441 25.8606 36.8519 26.0738 37.05L29.213 40.1813L34.4221 33.5644C34.5248 33.4537 34.6488 33.3648 34.7868 33.303C34.9248 33.2412 35.0738 33.2077 35.225 33.2047C35.3762 33.2016 35.5265 33.229 35.6669 33.2851Z" fill="#0C674B"/>
</svg>
