<svg width="60" height="60" viewBox="0 0 60 60" fill="none" xmlns="http://www.w3.org/2000/svg">
<g clip-path="url(#clip0_753_53746)">
<path d="M20.2407 51C20.2407 55.9707 16.3571 60 11.5661 60C6.77512 60 2.8915 55.9707 2.8915 51C2.8915 46.0292 6.77512 41.9999 11.5661 41.9999C16.3571 41.9999 20.2407 46.0292 20.2407 51ZM58.6354 14.0887L47.8118 18.58C46.4337 19.1527 45.5414 20.5195 45.5414 22.0618V49.9995C45.5414 53.4462 42.8389 56.25 39.5183 56.25C37.6321 56.25 35.8304 55.3155 34.6981 53.751L29.8366 47.9276C29.6689 47.9429 29.511 47.9999 29.3407 47.9999H25.7314C24.3878 41.162 18.5474 35.9999 11.5661 35.9999C9.13433 35.9999 6.87604 36.6854 4.86266 37.7906L0.309071 28.3414C-0.652364 26.3467 0.745694 23.9998 2.89526 23.9998H39.8025C40.3224 23.9998 40.7952 24.142 41.2043 24.3784V22.0618C41.2043 18.6691 43.1668 15.6634 46.2024 14.4022L57.026 9.91085C58.1328 9.45245 59.4008 10.0105 59.8441 11.1649C60.2902 12.3178 59.7481 13.6273 58.6354 14.0887ZM41.2043 49.9995V30.7991L34.5133 44.6831C34.3173 45.0902 34.0533 45.4424 33.7818 45.785L38.0725 50.9283C39.2077 52.4709 41.2043 51.5142 41.2043 49.9995ZM37.5899 17.9998C37.5899 15.7906 36.4394 13.8604 34.7259 12.8191C32.9672 11.7502 31.8196 9.94325 31.1325 7.95274C29.5321 3.31652 25.2598 0 20.2407 0C15.2216 0 10.9493 3.31652 9.34888 7.95274C8.66185 9.94325 7.5142 11.7502 5.75586 12.8188C4.04204 13.8604 2.89121 15.7906 2.89121 18.0001C2.89121 18.0001 2.8941 18.0001 2.89555 18.0001L37.5899 17.9998Z" fill="#0C674B"/>
</g>
<defs>
<clipPath id="clip0_753_53746">
<rect width="60" height="60" fill="white"/>
</clipPath>
</defs>
</svg>
