<svg width="60" height="60" viewBox="0 0 60 60" fill="none" xmlns="http://www.w3.org/2000/svg">
<path d="M59.3274 54.9958C59.4258 54.9969 59.5232 54.9762 59.6126 54.9351C59.7021 54.894 59.7812 54.8337 59.8445 54.7584C59.9077 54.6831 59.9534 54.5947 59.9783 54.4996C60.0032 54.4045 60.0067 54.3051 59.9885 54.2085L57.6662 41.5102L57.6704 38.6785C57.6662 36.6594 56.5432 35.2668 54.5005 34.7504C52.3428 34.2938 50.1632 33.9476 47.9701 33.7134C42.2914 32.9854 33.7013 31.8806 33.7734 29.0658C33.9557 25.4184 34.5022 21.7983 35.4049 18.2595C35.9855 15.6563 36.4855 13.413 36.4855 11.576C36.4987 10.7172 36.3407 9.86434 36.0208 9.0671C35.7009 8.26986 35.2253 7.54415 34.622 6.93219C34.0186 6.32023 33.2994 5.83423 32.5062 5.50251C31.713 5.17079 30.8616 5 30.0017 5C29.1418 5 28.2905 5.17079 27.4973 5.50251C26.7041 5.83423 25.9848 6.32023 25.3814 6.93219C24.778 7.54415 24.3026 8.26984 23.9826 9.06707C23.6627 9.86431 23.5047 10.7171 23.5179 11.5759C23.5136 13.4087 24.0137 15.6606 24.5943 18.2637C25.2977 21.506 26.1537 25.1717 26.2215 29.0658C26.2893 31.8848 17.7078 32.9896 12.0291 33.7176C9.83724 33.9489 7.65894 34.2936 5.50287 34.7504C3.46872 35.2583 2.33299 36.6636 2.33299 38.6784V41.5144L0.01062 54.2043C-0.00677719 54.3012 -0.00275665 54.4007 0.0223629 54.496C0.0474825 54.5912 0.093105 54.6798 0.156062 54.7556C0.21902 54.8314 0.297793 54.8925 0.386861 54.9347C0.475929 54.977 0.573158 54.9992 0.671745 55L59.3274 54.9958ZM3.56618 42.2467L56.4203 42.2551L58.5138 53.6582L1.47267 53.6583L3.56618 42.2467Z" fill="#0C674B"/>
</svg>
