<svg width="60" height="60" viewBox="0 0 60 60" fill="none" xmlns="http://www.w3.org/2000/svg">
<g clip-path="url(#clip0_753_53754)">
<mask id="path-1-outside-1_753_53754" maskUnits="userSpaceOnUse" x="9" y="-1" width="41" height="62" fill="black">
<rect fill="white" x="9" y="-1" width="41" height="62"/>
<path d="M21.95 0H39.7C45.3666 1.22 48.63 4.78 49.49 10.68C49.5125 10.8358 49.502 10.9946 49.4591 11.146C49.4162 11.2975 49.3418 11.4382 49.2409 11.559C49.1399 11.6798 49.0146 11.7779 48.8732 11.847C48.7317 11.9161 48.5773 11.9546 48.42 11.96L43.95 12.13C43.7762 12.1357 43.6094 12.2001 43.4768 12.3127C43.3443 12.4253 43.2537 12.5794 43.22 12.75L43.15 13.16C43.1249 13.2856 43.1481 13.416 43.2148 13.5253C43.2815 13.6346 43.3868 13.7148 43.51 13.75L44.8 14.12C44.9676 14.1696 45.1146 14.2714 45.2192 14.4102C45.3237 14.549 45.3801 14.7173 45.38 14.89C45.3933 27.8567 45.3933 40.82 45.38 53.78C45.38 57.03 44.36 59 41.33 60H21.58C18.8333 59.28 17.45 57.76 17.43 55.44C17.3766 48.88 17.3466 42.3167 17.34 35.75C17.34 33.8 17.67 32.31 19.16 30.85C22.4933 27.57 25.79 24.25 29.05 20.89C29.2683 20.6587 29.3899 20.3546 29.39 20.04V15.07C29.3899 14.9165 29.4328 14.7655 29.5139 14.6333C29.595 14.5011 29.7112 14.3928 29.85 14.32L31.47 13.49C32.2233 13.0967 32.2 12.7567 31.4 12.47C30.1333 12.0233 28.82 11.8733 27.46 12.02C27.3129 12.0355 27.1717 12.0885 27.0494 12.1741C26.927 12.2598 26.8275 12.3753 26.76 12.51L23.28 19.47C23.2055 19.6248 23.0878 19.755 22.9408 19.8454C22.7937 19.9357 22.6234 19.9825 22.45 19.98L17.99 19.89C17.8704 19.8885 17.7531 19.8569 17.6491 19.798C17.545 19.7391 17.4575 19.6549 17.3946 19.5532C17.3318 19.4514 17.2957 19.3355 17.2896 19.216C17.2835 19.0966 17.3077 18.9776 17.36 18.87L21.39 10.73C21.4236 10.6624 21.4396 10.5874 21.4366 10.512C21.4336 10.4365 21.4117 10.363 21.3728 10.2983C21.334 10.2335 21.2795 10.1796 21.2143 10.1415C21.1491 10.1033 21.0754 10.0822 21 10.08L18.15 9.96C17.9695 9.95486 17.798 9.88021 17.6713 9.75163C17.5446 9.62306 17.4725 9.4505 17.47 9.27L17.36 3.15C17.3563 2.9544 17.3989 2.7607 17.4844 2.58473C17.5699 2.40875 17.6958 2.2555 17.8518 2.1375C18.0078 2.0195 18.1896 1.94009 18.3822 1.90576C18.5748 1.87143 18.7728 1.88317 18.96 1.94C20.7133 2.48 21.71 1.83333 21.95 0ZM21.3719 4.6123C21.3695 4.52697 21.3503 4.44295 21.3155 4.36503C21.2806 4.28711 21.2307 4.21682 21.1687 4.15817C21.1067 4.09952 21.0337 4.05366 20.954 4.02321C20.8743 3.99276 20.7893 3.97832 20.704 3.9807L19.9843 4.0008C19.8989 4.00318 19.8149 4.02235 19.737 4.0572C19.6591 4.09206 19.5888 4.14192 19.5301 4.20394C19.4715 4.26596 19.4256 4.33893 19.3952 4.41867C19.3647 4.49841 19.3503 4.58337 19.3527 4.6687L19.4281 7.3677C19.4304 7.45303 19.4496 7.53705 19.4845 7.61497C19.5193 7.69289 19.5692 7.76318 19.6312 7.82183C19.6932 7.88048 19.7662 7.92634 19.8459 7.95679C19.9257 7.98724 20.0106 8.00168 20.096 7.9993L20.8157 7.9792C20.901 7.97682 20.985 7.95765 21.0629 7.9228C21.1409 7.88794 21.2111 7.83808 21.2698 7.77606C21.3284 7.71404 21.3743 7.64107 21.4048 7.56133C21.4352 7.48159 21.4497 7.39663 21.4473 7.3113L21.3719 4.6123ZM20.83 18.02C22.41 17.8 23.63 14.2 24.53 12.75C24.5698 12.6837 24.5934 12.6089 24.5988 12.5317C24.6042 12.4545 24.5913 12.3772 24.561 12.306C24.5308 12.2348 24.4841 12.1717 24.4249 12.122C24.3656 12.0723 24.2954 12.0374 24.22 12.02C22.59 11.65 21.02 16.01 20.32 17.28C20.274 17.3616 20.2518 17.4545 20.256 17.5481C20.2602 17.6417 20.2906 17.7322 20.3438 17.8093C20.397 17.8864 20.4707 17.9471 20.5567 17.9843C20.6426 18.0216 20.7373 18.034 20.83 18.02Z"/>
<path d="M15.1771 1.78884L12.6649 0.464304C12.1959 0.217029 11.6153 0.396772 11.368 0.865771L11.3213 0.954229C11.0741 1.42323 11.2538 2.00388 11.7228 2.25116L14.235 3.5757C14.704 3.82297 15.2847 3.64323 15.532 3.17423L15.5786 3.08577C15.8259 2.61677 15.6461 2.03612 15.1771 1.78884Z"/>
<path d="M12.8457 7.09998C14.4142 7.09177 15.6831 6.59263 15.6799 5.98513C15.6767 5.37762 14.4027 4.8918 12.8342 4.90001C11.2657 4.90823 9.99683 5.40737 10 6.01487C10.0032 6.62238 11.2773 7.1082 12.8457 7.09998Z"/>
<path d="M14.1134 8.43827L11.7029 9.69843C11.233 9.94407 11.0513 10.5241 11.2969 10.994L11.371 11.1357C11.6167 11.6056 12.1967 11.7874 12.6666 11.5417L15.077 10.2816C15.5469 10.0359 15.7287 9.45591 15.483 8.98605L15.4089 8.84426C15.1633 8.3744 14.5832 8.19263 14.1134 8.43827Z"/>
</mask>
<path d="M21.95 0H39.7C45.3666 1.22 48.63 4.78 49.49 10.68C49.5125 10.8358 49.502 10.9946 49.4591 11.146C49.4162 11.2975 49.3418 11.4382 49.2409 11.559C49.1399 11.6798 49.0146 11.7779 48.8732 11.847C48.7317 11.9161 48.5773 11.9546 48.42 11.96L43.95 12.13C43.7762 12.1357 43.6094 12.2001 43.4768 12.3127C43.3443 12.4253 43.2537 12.5794 43.22 12.75L43.15 13.16C43.1249 13.2856 43.1481 13.416 43.2148 13.5253C43.2815 13.6346 43.3868 13.7148 43.51 13.75L44.8 14.12C44.9676 14.1696 45.1146 14.2714 45.2192 14.4102C45.3237 14.549 45.3801 14.7173 45.38 14.89C45.3933 27.8567 45.3933 40.82 45.38 53.78C45.38 57.03 44.36 59 41.33 60H21.58C18.8333 59.28 17.45 57.76 17.43 55.44C17.3766 48.88 17.3466 42.3167 17.34 35.75C17.34 33.8 17.67 32.31 19.16 30.85C22.4933 27.57 25.79 24.25 29.05 20.89C29.2683 20.6587 29.3899 20.3546 29.39 20.04V15.07C29.3899 14.9165 29.4328 14.7655 29.5139 14.6333C29.595 14.5011 29.7112 14.3928 29.85 14.32L31.47 13.49C32.2233 13.0967 32.2 12.7567 31.4 12.47C30.1333 12.0233 28.82 11.8733 27.46 12.02C27.3129 12.0355 27.1717 12.0885 27.0494 12.1741C26.927 12.2598 26.8275 12.3753 26.76 12.51L23.28 19.47C23.2055 19.6248 23.0878 19.755 22.9408 19.8454C22.7937 19.9357 22.6234 19.9825 22.45 19.98L17.99 19.89C17.8704 19.8885 17.7531 19.8569 17.6491 19.798C17.545 19.7391 17.4575 19.6549 17.3946 19.5532C17.3318 19.4514 17.2957 19.3355 17.2896 19.216C17.2835 19.0966 17.3077 18.9776 17.36 18.87L21.39 10.73C21.4236 10.6624 21.4396 10.5874 21.4366 10.512C21.4336 10.4365 21.4117 10.363 21.3728 10.2983C21.334 10.2335 21.2795 10.1796 21.2143 10.1415C21.1491 10.1033 21.0754 10.0822 21 10.08L18.15 9.96C17.9695 9.95486 17.798 9.88021 17.6713 9.75163C17.5446 9.62306 17.4725 9.4505 17.47 9.27L17.36 3.15C17.3563 2.9544 17.3989 2.7607 17.4844 2.58473C17.5699 2.40875 17.6958 2.2555 17.8518 2.1375C18.0078 2.0195 18.1896 1.94009 18.3822 1.90576C18.5748 1.87143 18.7728 1.88317 18.96 1.94C20.7133 2.48 21.71 1.83333 21.95 0ZM21.3719 4.6123C21.3695 4.52697 21.3503 4.44295 21.3155 4.36503C21.2806 4.28711 21.2307 4.21682 21.1687 4.15817C21.1067 4.09952 21.0337 4.05366 20.954 4.02321C20.8743 3.99276 20.7893 3.97832 20.704 3.9807L19.9843 4.0008C19.8989 4.00318 19.8149 4.02235 19.737 4.0572C19.6591 4.09206 19.5888 4.14192 19.5301 4.20394C19.4715 4.26596 19.4256 4.33893 19.3952 4.41867C19.3647 4.49841 19.3503 4.58337 19.3527 4.6687L19.4281 7.3677C19.4304 7.45303 19.4496 7.53705 19.4845 7.61497C19.5193 7.69289 19.5692 7.76318 19.6312 7.82183C19.6932 7.88048 19.7662 7.92634 19.8459 7.95679C19.9257 7.98724 20.0106 8.00168 20.096 7.9993L20.8157 7.9792C20.901 7.97682 20.985 7.95765 21.0629 7.9228C21.1409 7.88794 21.2111 7.83808 21.2698 7.77606C21.3284 7.71404 21.3743 7.64107 21.4048 7.56133C21.4352 7.48159 21.4497 7.39663 21.4473 7.3113L21.3719 4.6123ZM20.83 18.02C22.41 17.8 23.63 14.2 24.53 12.75C24.5698 12.6837 24.5934 12.6089 24.5988 12.5317C24.6042 12.4545 24.5913 12.3772 24.561 12.306C24.5308 12.2348 24.4841 12.1717 24.4249 12.122C24.3656 12.0723 24.2954 12.0374 24.22 12.02C22.59 11.65 21.02 16.01 20.32 17.28C20.274 17.3616 20.2518 17.4545 20.256 17.5481C20.2602 17.6417 20.2906 17.7322 20.3438 17.8093C20.397 17.8864 20.4707 17.9471 20.5567 17.9843C20.6426 18.0216 20.7373 18.034 20.83 18.02Z" fill="#0C674B"/>
<path d="M15.1771 1.78884L12.6649 0.464304C12.1959 0.217029 11.6153 0.396772 11.368 0.865771L11.3213 0.954229C11.0741 1.42323 11.2538 2.00388 11.7228 2.25116L14.235 3.5757C14.704 3.82297 15.2847 3.64323 15.532 3.17423L15.5786 3.08577C15.8259 2.61677 15.6461 2.03612 15.1771 1.78884Z" fill="#0C674B"/>
<path d="M12.8457 7.09998C14.4142 7.09177 15.6831 6.59263 15.6799 5.98513C15.6767 5.37762 14.4027 4.8918 12.8342 4.90001C11.2657 4.90823 9.99683 5.40737 10 6.01487C10.0032 6.62238 11.2773 7.1082 12.8457 7.09998Z" fill="#0C674B"/>
<path d="M14.1134 8.43827L11.7029 9.69843C11.233 9.94407 11.0513 10.5241 11.2969 10.994L11.371 11.1357C11.6167 11.6056 12.1967 11.7874 12.6666 11.5417L15.077 10.2816C15.5469 10.0359 15.7287 9.45591 15.483 8.98605L15.4089 8.84426C15.1633 8.3744 14.5832 8.19263 14.1134 8.43827Z" fill="#0C674B"/>
<path d="M21.95 0H39.7C45.3666 1.22 48.63 4.78 49.49 10.68C49.5125 10.8358 49.502 10.9946 49.4591 11.146C49.4162 11.2975 49.3418 11.4382 49.2409 11.559C49.1399 11.6798 49.0146 11.7779 48.8732 11.847C48.7317 11.9161 48.5773 11.9546 48.42 11.96L43.95 12.13C43.7762 12.1357 43.6094 12.2001 43.4768 12.3127C43.3443 12.4253 43.2537 12.5794 43.22 12.75L43.15 13.16C43.1249 13.2856 43.1481 13.416 43.2148 13.5253C43.2815 13.6346 43.3868 13.7148 43.51 13.75L44.8 14.12C44.9676 14.1696 45.1146 14.2714 45.2192 14.4102C45.3237 14.549 45.3801 14.7173 45.38 14.89C45.3933 27.8567 45.3933 40.82 45.38 53.78C45.38 57.03 44.36 59 41.33 60H21.58C18.8333 59.28 17.45 57.76 17.43 55.44C17.3766 48.88 17.3466 42.3167 17.34 35.75C17.34 33.8 17.67 32.31 19.16 30.85C22.4933 27.57 25.79 24.25 29.05 20.89C29.2683 20.6587 29.3899 20.3546 29.39 20.04V15.07C29.3899 14.9165 29.4328 14.7655 29.5139 14.6333C29.595 14.5011 29.7112 14.3928 29.85 14.32L31.47 13.49C32.2233 13.0967 32.2 12.7567 31.4 12.47C30.1333 12.0233 28.82 11.8733 27.46 12.02C27.3129 12.0355 27.1717 12.0885 27.0494 12.1741C26.927 12.2598 26.8275 12.3753 26.76 12.51L23.28 19.47C23.2055 19.6248 23.0878 19.755 22.9408 19.8454C22.7937 19.9357 22.6234 19.9825 22.45 19.98L17.99 19.89C17.8704 19.8885 17.7531 19.8569 17.6491 19.798C17.545 19.7391 17.4575 19.6549 17.3946 19.5532C17.3318 19.4514 17.2957 19.3355 17.2896 19.216C17.2835 19.0966 17.3077 18.9776 17.36 18.87L21.39 10.73C21.4236 10.6624 21.4396 10.5874 21.4366 10.512C21.4336 10.4365 21.4117 10.363 21.3728 10.2983C21.334 10.2335 21.2795 10.1796 21.2143 10.1415C21.1491 10.1033 21.0754 10.0822 21 10.08L18.15 9.96C17.9695 9.95486 17.798 9.88021 17.6713 9.75163C17.5446 9.62306 17.4725 9.4505 17.47 9.27L17.36 3.15C17.3563 2.9544 17.3989 2.7607 17.4844 2.58473C17.5699 2.40875 17.6958 2.2555 17.8518 2.1375C18.0078 2.0195 18.1896 1.94009 18.3822 1.90576C18.5748 1.87143 18.7728 1.88317 18.96 1.94C20.7133 2.48 21.71 1.83333 21.95 0ZM21.3719 4.6123C21.3695 4.52697 21.3503 4.44295 21.3155 4.36503C21.2806 4.28711 21.2307 4.21682 21.1687 4.15817C21.1067 4.09952 21.0337 4.05366 20.954 4.02321C20.8743 3.99276 20.7893 3.97832 20.704 3.9807L19.9843 4.0008C19.8989 4.00318 19.8149 4.02235 19.737 4.0572C19.6591 4.09206 19.5888 4.14192 19.5301 4.20394C19.4715 4.26596 19.4256 4.33893 19.3952 4.41867C19.3647 4.49841 19.3503 4.58337 19.3527 4.6687L19.4281 7.3677C19.4304 7.45303 19.4496 7.53705 19.4845 7.61497C19.5193 7.69289 19.5692 7.76318 19.6312 7.82183C19.6932 7.88048 19.7662 7.92634 19.8459 7.95679C19.9257 7.98724 20.0106 8.00168 20.096 7.9993L20.8157 7.9792C20.901 7.97682 20.985 7.95765 21.0629 7.9228C21.1409 7.88794 21.2111 7.83808 21.2698 7.77606C21.3284 7.71404 21.3743 7.64107 21.4048 7.56133C21.4352 7.48159 21.4497 7.39663 21.4473 7.3113L21.3719 4.6123ZM20.83 18.02C22.41 17.8 23.63 14.2 24.53 12.75C24.5698 12.6837 24.5934 12.6089 24.5988 12.5317C24.6042 12.4545 24.5913 12.3772 24.561 12.306C24.5308 12.2348 24.4841 12.1717 24.4249 12.122C24.3656 12.0723 24.2954 12.0374 24.22 12.02C22.59 11.65 21.02 16.01 20.32 17.28C20.274 17.3616 20.2518 17.4545 20.256 17.5481C20.2602 17.6417 20.2906 17.7322 20.3438 17.8093C20.397 17.8864 20.4707 17.9471 20.5567 17.9843C20.6426 18.0216 20.7373 18.034 20.83 18.02Z" stroke="#0C674B" stroke-width="0.6" mask="url(#path-1-outside-1_753_53754)"/>
<path d="M15.1771 1.78884L12.6649 0.464304C12.1959 0.217029 11.6153 0.396772 11.368 0.865771L11.3213 0.954229C11.0741 1.42323 11.2538 2.00388 11.7228 2.25116L14.235 3.5757C14.704 3.82297 15.2847 3.64323 15.532 3.17423L15.5786 3.08577C15.8259 2.61677 15.6461 2.03612 15.1771 1.78884Z" stroke="#0C674B" stroke-width="0.6" mask="url(#path-1-outside-1_753_53754)"/>
<path d="M12.8457 7.09998C14.4142 7.09177 15.6831 6.59263 15.6799 5.98513C15.6767 5.37762 14.4027 4.8918 12.8342 4.90001C11.2657 4.90823 9.99683 5.40737 10 6.01487C10.0032 6.62238 11.2773 7.1082 12.8457 7.09998Z" stroke="#0C674B" stroke-width="0.6" mask="url(#path-1-outside-1_753_53754)"/>
<path d="M14.1134 8.43827L11.7029 9.69843C11.233 9.94407 11.0513 10.5241 11.2969 10.994L11.371 11.1357C11.6167 11.6056 12.1967 11.7874 12.6666 11.5417L15.077 10.2816C15.5469 10.0359 15.7287 9.45591 15.483 8.98605L15.4089 8.84426C15.1633 8.3744 14.5832 8.19263 14.1134 8.43827Z" stroke="#0C674B" stroke-width="0.6" mask="url(#path-1-outside-1_753_53754)"/>
</g>
<defs>
<clipPath id="clip0_753_53754">
<rect width="60" height="60" fill="white"/>
</clipPath>
</defs>
</svg>
