<svg width="60" height="60" viewBox="0 0 60 60" fill="none" xmlns="http://www.w3.org/2000/svg">
<path d="M24.8092 0H35.3092C36.7226 0.626667 37.7359 1.62333 38.3492 2.99C38.478 3.27968 38.7096 3.51129 38.9992 3.64C47.4492 7.39 52.9892 15.28 51.4592 24.67C49.9392 34.0433 48.3926 43.4167 46.8192 52.79C46.3993 55.3167 45.2226 57.05 43.2892 57.99C37.9692 60.58 14.9692 61.74 13.5592 53.8C11.7726 43.74 10.1159 33.67 8.58925 23.59C7.25925 14.83 13.3592 7.15 21.0292 3.73C21.3193 3.60136 21.5538 3.37046 21.6892 3.08C22.3559 1.65333 23.3959 0.626667 24.8092 0ZM35.5291 3.9404C35.5289 3.78281 35.4976 3.62682 35.437 3.48134C35.3764 3.33585 35.2878 3.20372 35.1762 3.09249C35.0646 2.98125 34.9321 2.89309 34.7864 2.83304C34.6407 2.77299 34.4846 2.74222 34.327 2.7425L25.727 2.7575C25.5695 2.75778 25.4135 2.78909 25.268 2.84965C25.1225 2.91021 24.9904 2.99883 24.8791 3.11046C24.7679 3.22208 24.6797 3.35452 24.6197 3.50022C24.5596 3.64592 24.5289 3.80201 24.5291 3.9596L24.5293 4.0596C24.5296 4.21719 24.5609 4.37318 24.6215 4.51866C24.6821 4.66415 24.7707 4.79628 24.8823 4.90751C24.9939 5.01875 25.1264 5.10691 25.2721 5.16696C25.4178 5.22701 25.5739 5.25778 25.7314 5.2575L34.3314 5.2425C34.489 5.24222 34.645 5.21091 34.7905 5.15035C34.936 5.08979 35.0681 5.00117 35.1794 4.88954C35.2906 4.77792 35.3788 4.64548 35.4388 4.49978C35.4989 4.35408 35.5296 4.19799 35.5293 4.0404L35.5291 3.9404ZM24.0092 7.63L22.7992 6.42C22.6903 6.3138 22.552 6.24273 22.4023 6.21599C22.2525 6.18925 22.0982 6.20806 21.9592 6.27C16.8126 8.60333 13.3526 12.4467 11.5792 17.8C11.5595 17.8561 11.5553 17.9165 11.5671 17.9748C11.5788 18.0331 11.6061 18.0872 11.6461 18.1312C11.6861 18.1753 11.7372 18.2077 11.7941 18.2251C11.851 18.2425 11.9115 18.2442 11.9692 18.23C24.0359 15.4967 36.0959 15.4967 48.1493 18.23C48.2083 18.2439 48.27 18.2418 48.328 18.2238C48.3859 18.2058 48.438 18.1727 48.4788 18.1278C48.5196 18.0829 48.5477 18.0279 48.5601 17.9685C48.5724 17.9091 48.5687 17.8475 48.5492 17.79C46.8426 12.51 43.4759 8.71 38.4492 6.39C38.3031 6.32338 38.1425 6.2966 37.9842 6.31242C37.8259 6.32825 37.6757 6.38612 37.5492 6.48L35.9692 7.68C35.6968 7.88773 35.3665 8.00017 35.0292 8H24.9192C24.5802 8.00027 24.2537 7.86753 24.0092 7.63ZM48.4092 21.7C48.4092 20.9972 46.477 20.3231 43.0376 19.8262C39.5982 19.3292 34.9333 19.05 30.0692 19.05C25.2052 19.05 20.5403 19.3292 17.1009 19.8262C13.6615 20.3231 11.7292 20.9972 11.7292 21.7C11.7292 22.4028 13.6615 23.0769 17.1009 23.5738C20.5403 24.0708 25.2052 24.35 30.0692 24.35C34.9333 24.35 39.5982 24.0708 43.0376 23.5738C46.477 23.0769 48.4092 22.4028 48.4092 21.7Z" fill="#0C674B"/>
</svg>
