<svg width="60" height="60" viewBox="0 0 60 60" fill="none" xmlns="http://www.w3.org/2000/svg">
<g clip-path="url(#clip0_753_53757)">
<path d="M0 31.6667V43.3333H15V31.6667H0ZM18.3333 31.6667V43.3333H41.6667V31.6667H18.3333ZM0 28.3333H41.6667V16.6667H0V28.3333ZM28.3333 46.6667H0V53.3333C0 57.0153 2.98467 60 6.66667 60H28.3333V46.6667ZM60 31.6667H45V43.3333H60V31.6667ZM15 13.3333V0H6.66667C2.98467 0 0 2.98467 0 6.66667V13.3333H15ZM31.6667 46.6667V60H53.3333C57.0153 60 60 57.0153 60 53.3333V46.6667H31.6667Z" fill="#0C674B"/>
<path d="M15 0V13.3333H0V6.66667C0 2.98467 2.98467 0 6.66667 0H15Z" fill="#0C674B"/>
<path d="M18.334 13.33V0H41.6673V13.33H18.334Z" fill="#0C674B"/>
<path d="M52.3564 1.00055C51.6931 1.00452 51.0507 1.22663 50.5319 1.63133C50.0131 2.03603 49.648 2.59991 49.4951 3.23269L47.0884 13.092C46.9137 13.8022 46.9996 14.5504 47.3311 15.2053C47.6626 15.8602 48.2185 16.38 48.9013 16.6735C49.792 17.0406 50.7365 17.2661 51.6992 17.3417L51.7141 18.2046L50.8778 18.2072C50.6576 18.2104 50.4477 18.2989 50.2939 18.4534C50.1401 18.6079 50.0549 18.8158 50.0568 19.0318L50.0929 25.5887C50.1017 26.0379 50.236 26.4763 50.4811 26.8561C50.7263 27.2359 51.0729 27.5425 51.4832 27.7427C51.8936 27.9429 52.3519 28.0289 52.8083 27.9914C53.2647 27.9539 53.7018 27.7943 54.0718 27.53C54.1886 27.4606 54.2989 27.3813 54.4013 27.2928C54.8617 26.8305 55.1174 26.2084 55.1127 25.5618L55.0649 19.003C55.0639 18.7871 54.9759 18.5802 54.8202 18.4274C54.6628 18.2755 54.4506 18.1909 54.2299 18.192L53.4169 18.1981L53.4019 17.3352C54.3425 17.2404 55.2628 17.0062 56.1313 16.6405C56.3396 16.5512 56.5372 16.4396 56.7205 16.3079C57.2285 15.9361 57.6117 15.4241 57.8212 14.8372C58.0306 14.2504 58.0567 13.6154 57.8962 13.0134L55.2979 3.20091C55.1328 2.56246 54.7521 1.9974 54.218 1.59783C53.6838 1.19825 53.0276 0.987725 52.3564 1.00055ZM53.6481 3.59596L56.2531 13.4036C56.3421 13.7339 56.3113 14.0841 56.1661 14.3943C56.0208 14.7045 55.7702 14.9555 55.4569 15.1043C54.7898 15.3841 54.0855 15.5696 53.3649 15.6551L53.3175 11.6257C53.3212 11.5155 53.3021 11.4056 53.2614 11.3027C53.2206 11.1999 53.1592 11.1061 53.0806 11.0271C53.002 10.948 52.908 10.8854 52.8041 10.8429C52.7003 10.8003 52.5888 10.7788 52.4763 10.7796C52.3639 10.7804 52.2527 10.8035 52.1497 10.8475C52.0466 10.8915 51.9536 10.9554 51.8764 11.0356C51.7992 11.1157 51.7393 11.2103 51.7004 11.3138C51.6615 11.4172 51.6442 11.5273 51.6498 11.6375L51.6905 15.6718C50.9636 15.6019 50.2503 15.4312 49.5721 15.1647C49.2462 15.0282 48.9806 14.782 48.8233 14.4705C48.6659 14.159 48.6272 13.8028 48.714 13.4661L51.1207 3.60681C51.1934 3.31594 51.3664 3.05873 51.6102 2.87858C51.8305 2.72 52.097 2.63503 52.3704 2.63617C52.6614 2.63566 52.9444 2.72951 53.1755 2.9031C53.4066 3.0767 53.5727 3.3203 53.6481 3.59596Z" fill="#0C674B"/>
</g>
<defs>
<clipPath id="clip0_753_53757">
<rect width="60" height="60" fill="white"/>
</clipPath>
</defs>
</svg>
