<svg width="60" height="60" viewBox="0 0 60 60" fill="none" xmlns="http://www.w3.org/2000/svg">
<path d="M49.6552 51.6207C49.6552 46.4483 54.8276 42.3103 54.8276 42.3103C54.8276 42.3103 60 46.4483 60 51.6207C60 52.9925 59.4551 54.3081 58.485 55.2781C57.515 56.2482 56.1994 56.7931 54.8276 56.7931C53.4558 56.7931 52.1402 56.2482 51.1701 55.2781C50.2001 54.3081 49.6552 52.9925 49.6552 51.6207Z" fill="#0C674B"/>
<path fill-rule="evenodd" clip-rule="evenodd" d="M53.7925 30.7966L29.0089 55.5802C28.6246 55.9645 28.1684 56.2694 27.6663 56.4774C27.1642 56.6854 26.626 56.7925 26.0826 56.7925C25.5391 56.7925 25.0009 56.6854 24.4988 56.4774C23.9967 56.2694 23.5405 55.9645 23.1563 55.5802L1.21231 33.6362C0.827964 33.252 0.523081 32.7957 0.315072 32.2936C0.107062 31.7916 0 31.2534 0 30.7099C0 30.1664 0.107062 29.6283 0.315072 29.1262C0.523081 28.6241 0.827964 28.1679 1.21231 27.7836L13.4467 15.5492L5.61959 7.72316C5.29638 7.4 5.29642 6.71117 5.61959 6.38796C5.94276 6.06474 6.67678 6.17683 7 6.5L15 14L25.9959 3L53.7925 30.7966ZM33.1034 28.8621C33.1034 31.7187 30.7877 34.0345 27.931 34.0345C25.0744 34.0345 22.7586 31.7187 22.7586 28.8621C22.7586 26.0054 25.0744 23.6897 27.931 23.6897C30.7877 23.6897 33.1034 26.0054 33.1034 28.8621Z" fill="#0C674B"/>
</svg>
