<svg width="60" height="60" viewBox="0 0 60 60" fill="none" xmlns="http://www.w3.org/2000/svg">
<g clip-path="url(#clip0_753_53749)">
<path fill-rule="evenodd" clip-rule="evenodd" d="M0 6C0 2.68629 2.68629 0 6 0H54C57.3137 0 60 2.68629 60 6V54C60 57.3137 57.3137 60 54 60H6C2.68629 60 0 57.3137 0 54V6ZM3 7C3 4.79086 4.79086 3 7 3H11C13.2091 3 15 4.79086 15 7V53C15 55.2091 13.2091 57 11 57H7C4.79086 57 3 55.2091 3 53V7ZM21 3C18.7909 3 17 4.79086 17 7V13C17 15.2091 18.7909 17 21 17H25C27.2091 17 29 15.2091 29 13V7C29 4.79086 27.2091 3 25 3H21ZM31 47C31 44.7909 32.7909 43 35 43H39C41.2091 43 43 44.7909 43 47V53C43 55.2091 41.2091 57 39 57H35C32.7909 57 31 55.2091 31 53V47ZM21 19C18.7909 19 17 20.7909 17 23V53C17 55.2091 18.7909 57 21 57H25C27.2091 57 29 55.2091 29 53V23C29 20.7909 27.2091 19 25 19H21ZM31 7C31 4.79086 32.7909 3 35 3H39C41.2091 3 43 4.79086 43 7V37C43 39.2091 41.2091 41 39 41H35C32.7909 41 31 39.2091 31 37V7ZM49 3C46.7909 3 45 4.79086 45 7V53C45 55.2091 46.7909 57 49 57H53C55.2091 57 57 55.2091 57 53V7C57 4.79086 55.2091 3 53 3H49Z" fill="#0C674B"/>
<path d="M7 6C7 6.55228 6.55228 7 6 7C5.44772 7 5 6.55228 5 6C5 5.44772 5.44772 5 6 5C6.55228 5 7 5.44772 7 6Z" fill="#0C674B"/>
<path d="M49 6C49 6.55228 48.5523 7 48 7C47.4477 7 47 6.55228 47 6C47 5.44772 47.4477 5 48 5C48.5523 5 49 5.44772 49 6Z" fill="#0C674B"/>
<path d="M21 14C21 14.5523 20.5523 15 20 15C19.4477 15 19 14.5523 19 14C19 13.4477 19.4477 13 20 13C20.5523 13 21 13.4477 21 14Z" fill="#0C674B"/>
<path d="M21 22C21 22.5523 20.5523 23 20 23C19.4477 23 19 22.5523 19 22C19 21.4477 19.4477 21 20 21C20.5523 21 21 21.4477 21 22Z" fill="#0C674B"/>
<path d="M35 38C35 38.5523 34.5523 39 34 39C33.4477 39 33 38.5523 33 38C33 37.4477 33.4477 37 34 37C34.5523 37 35 37.4477 35 38Z" fill="#0C674B"/>
<path d="M35 46C35 46.5523 34.5523 47 34 47C33.4477 47 33 46.5523 33 46C33 45.4477 33.4477 45 34 45C34.5523 45 35 45.4477 35 46Z" fill="#0C674B"/>
<path d="M7 54C7 54.5523 6.55228 55 6 55C5.44772 55 5 54.5523 5 54C5 53.4477 5.44772 53 6 53C6.55228 53 7 53.4477 7 54Z" fill="#0C674B"/>
<path d="M49 54C49 54.5523 48.5523 55 48 55C47.4477 55 47 54.5523 47 54C47 53.4477 47.4477 53 48 53C48.5523 53 49 53.4477 49 54Z" fill="#0C674B"/>
<path d="M13 6C13 6.55228 12.5523 7 12 7C11.4477 7 11 6.55228 11 6C11 5.44772 11.4477 5 12 5C12.5523 5 13 5.44772 13 6Z" fill="#0C674B"/>
<path d="M55 6C55 6.55228 54.5523 7 54 7C53.4477 7 53 6.55228 53 6C53 5.44772 53.4477 5 54 5C54.5523 5 55 5.44772 55 6Z" fill="#0C674B"/>
<path d="M27 14C27 14.5523 26.5523 15 26 15C25.4477 15 25 14.5523 25 14C25 13.4477 25.4477 13 26 13C26.5523 13 27 13.4477 27 14Z" fill="#0C674B"/>
<path d="M27 22C27 22.5523 26.5523 23 26 23C25.4477 23 25 22.5523 25 22C25 21.4477 25.4477 21 26 21C26.5523 21 27 21.4477 27 22Z" fill="#0C674B"/>
<path d="M41 38C41 38.5523 40.5523 39 40 39C39.4477 39 39 38.5523 39 38C39 37.4477 39.4477 37 40 37C40.5523 37 41 37.4477 41 38Z" fill="#0C674B"/>
<path d="M41 46C41 46.5523 40.5523 47 40 47C39.4477 47 39 46.5523 39 46C39 45.4477 39.4477 45 40 45C40.5523 45 41 45.4477 41 46Z" fill="#0C674B"/>
<path d="M13 54C13 54.5523 12.5523 55 12 55C11.4477 55 11 54.5523 11 54C11 53.4477 11.4477 53 12 53C12.5523 53 13 53.4477 13 54Z" fill="#0C674B"/>
<path d="M55 54C55 54.5523 54.5523 55 54 55C53.4477 55 53 54.5523 53 54C53 53.4477 53.4477 53 54 53C54.5523 53 55 53.4477 55 54Z" fill="#0C674B"/>
</g>
<defs>
<clipPath id="clip0_753_53749">
<rect width="60" height="60" fill="white"/>
</clipPath>
</defs>
</svg>
