<svg width="60" height="60" viewBox="0 0 60 60" fill="none" xmlns="http://www.w3.org/2000/svg">
<g clip-path="url(#clip0_753_53741)">
<path d="M60 16.6667V28.3333H31.6667V16.6667H60ZM18.3333 0V13.3333H41.6667V0H18.3333ZM0 31.6667V43.3333H15V31.6667H0ZM18.3333 31.6667V43.3333H41.6667V31.6667H18.3333ZM0 28.3333H28.3333V16.6667H0V28.3333ZM28.3333 46.6667H0V53.3333C0 57.0153 2.98467 60 6.66667 60H28.3333V46.6667ZM60 31.6667H45V43.3333H60V31.6667ZM15 13.3333V0H6.66667C2.98467 0 0 2.98467 0 6.66667V13.3333H15ZM31.6667 46.6667V60H53.3333C57.0153 60 60 57.0153 60 53.3333V46.6667H31.6667ZM45 13.3333H60V6.66667C60 2.98467 57.0153 0 53.3333 0H45V13.3333Z" fill="#0C674B"/>
</g>
<defs>
<clipPath id="clip0_753_53741">
<rect width="60" height="60" fill="white"/>
</clipPath>
</defs>
</svg>
