<svg width="60" height="60" viewBox="0 0 60 60" fill="none" xmlns="http://www.w3.org/2000/svg">
<g clip-path="url(#clip0_753_53744)">
<path d="M2.30891 0H7.80891C10.6089 1.26 12.4789 10.07 13.3989 13.08C15.0489 18.46 5.16891 17 2.48891 16.98C1.19557 16.98 0.365573 16.1333 -0.00109375 14.44V2.19C0.43224 1.11667 1.20224 0.386667 2.30891 0Z" fill="#0C674B"/>
<path d="M14.8089 0H30.0589C33.7456 2.85333 37.6589 6.34 41.7989 10.46C43.7989 12.46 43.0089 18.97 42.9389 21.69C42.8689 24.48 37.1589 24.1 35.2389 23.98C31.5789 23.75 26.6889 19.35 23.6289 17.28C23.3622 17.098 23.0441 17.0037 22.7189 17.01C19.6289 17.06 16.8589 17.62 15.9089 14.46C14.9022 11.12 13.8556 7.79667 12.7689 4.49C12.0422 2.29667 12.7222 0.8 14.8089 0Z" fill="#0C674B"/>
<path d="M40.5589 0H57.8089C58.7889 0.526667 59.5189 1.29667 59.9989 2.31V3.81L58.9289 5.2C58.7268 5.4603 58.4512 5.65221 58.1389 5.75C51.7389 7.68333 47.7122 8.88 46.0589 9.34C42.7089 10.27 34.0389 1.68 40.5589 0Z" fill="#0C674B"/>
<path d="M59.9989 21.06V10.56C58.2889 6.42 50.8989 9.95 47.6989 10.81C43.9589 11.8 44.9389 17.29 44.9089 20.26C44.8589 26.04 53.4489 23.69 58.0089 23.26C58.8422 23.18 59.5056 22.4467 59.9989 21.06Z" fill="#0C674B"/>
<path d="M-0.00109375 41.69V21.19C1.40891 18.29 5.05891 18.33 5.77891 21.49C7.05224 27.07 8.30557 32.67 9.53891 38.29C9.62293 38.6691 9.597 39.0644 9.46414 39.4293C9.33128 39.7942 9.09703 40.1136 8.78891 40.35C6.57891 42.03 1.85891 46.94 -0.00109375 41.69Z" fill="#0C674B"/>
<path d="M28.5589 23.19C30.8489 24.85 30.4989 26.3 28.8789 28.34C25.7789 32.26 22.5822 36.0767 19.2889 39.79C19.088 40.0099 18.8162 40.1546 18.5189 40.2C16.1389 40.52 13.9889 40.03 12.0689 38.73C11.7798 38.5372 11.5756 38.2362 11.4989 37.89C10.3056 32.55 9.12891 27.26 7.96891 22.02C7.01891 17.76 17.7889 18.98 20.0989 18.99C23.7289 19.01 25.6589 21.08 28.5589 23.19Z" fill="#0C674B"/>
<path d="M60.0689 27.67L59.9989 45.31C57.3289 51.4 50.3389 41.98 48.1989 39.81C47.8684 39.4761 47.6329 39.06 47.5169 38.6047C47.4009 38.1494 47.4085 37.6714 47.5389 37.22L50.3489 27.49C50.4484 27.1477 50.6244 26.8329 50.8636 26.5694C51.1027 26.306 51.3987 26.101 51.7289 25.97C55.2022 24.6033 57.9822 25.17 60.0689 27.67Z" fill="#0C674B"/>
<path d="M22.1989 39.59C25.6389 35.32 29.2089 30.16 33.6089 26.31C33.8534 26.0918 34.1712 25.9739 34.4989 25.98C38.0522 26.0067 41.5456 26.0167 44.9789 26.01C50.0489 25.99 45.9789 35.26 45.3989 37.77C45.3207 38.1096 45.1475 38.4215 44.8989 38.67L34.7989 48.64C34.5486 48.8832 34.2115 49.0195 33.8589 49.02C28.6789 48.98 21.2989 51.15 20.7889 43.32C20.7089 42.1067 21.1789 40.8633 22.1989 39.59Z" fill="#0C674B"/>
<path d="M13.1889 60H2.18891C1.07557 59.4667 0.345573 58.6133 -0.00109375 57.44L-0.121094 50.31C3.13891 47.0033 6.72557 44.09 10.6389 41.57C10.9216 41.3905 11.2649 41.3261 11.5989 41.39L17.0989 42.52C17.4647 42.591 17.7879 42.8029 17.9989 43.11C19.0589 44.64 19.5089 46.24 20.2589 48.16C21.4389 51.16 15.1489 58.31 13.1889 60Z" fill="#0C674B"/>
<path d="M59.9989 57.81V55.06C57.8489 51.07 52.0189 46.4 48.7089 43.11C44.7189 39.15 39.4389 46.93 36.7689 49.61C36.5402 49.8454 36.384 50.1404 36.3189 50.46C35.7589 53.26 34.9489 58.7 38.4389 60H57.6889C58.7222 59.5467 59.4922 58.8167 59.9989 57.81Z" fill="#0C674B"/>
<path d="M31.4389 60H21.4389C20.2922 59.5867 19.5056 58.8 19.0789 57.64C18.9694 57.3512 18.973 57.03 19.0889 56.74C19.9022 54.6733 21.1122 52.8833 22.7189 51.37C22.9885 51.1132 23.3466 50.97 23.7189 50.97C26.5289 50.99 33.9189 49.73 34.0089 53.9C34.0589 56.59 34.5989 58.83 31.4389 60Z" fill="#0C674B"/>
</g>
<defs>
<clipPath id="clip0_753_53744">
<rect width="60" height="60" fill="white"/>
</clipPath>
</defs>
</svg>
