<svg width="60" height="60" viewBox="0 0 60 60" fill="none" xmlns="http://www.w3.org/2000/svg">
<mask id="path-1-outside-1_753_53758" maskUnits="userSpaceOnUse" x="1.78906" y="8.30235" width="56" height="43" fill="black">
<rect fill="white" x="1.78906" y="8.30235" width="56" height="43"/>
<path d="M28.7392 18.92C29.9892 14.86 37.5192 11.26 41.4292 9.41C41.5861 9.33292 41.7597 9.29621 41.9343 9.30319C42.1089 9.31018 42.279 9.36064 42.4292 9.45L45.5592 11.32C45.8363 11.4862 46.0659 11.7212 46.2257 12.0019C46.3855 12.2827 46.47 12.5997 46.471 12.922C46.472 13.2443 46.3895 13.561 46.2314 13.841C46.0734 14.1211 45.8452 14.355 45.5692 14.52L41.1092 17.19C41.0267 17.2393 40.9586 17.3094 40.9116 17.3932C40.8646 17.4771 40.8405 17.5718 40.8415 17.6679C40.8425 17.764 40.8687 17.8581 40.9174 17.941C40.9661 18.0238 41.0357 18.0924 41.1192 18.14L56.5592 27.13C56.6926 27.2059 56.8035 27.3162 56.8808 27.4496C56.9581 27.5831 56.9989 27.735 56.9992 27.89V31.09C56.9989 31.2574 56.9545 31.4221 56.8703 31.5677C56.7861 31.7133 56.6651 31.8347 56.5192 31.92L51.9592 34.57C51.8934 34.6083 51.8193 34.63 51.7432 34.6332C51.6672 34.6365 51.5914 34.6213 51.5226 34.5888C51.4537 34.5563 51.3938 34.5076 51.3479 34.4469C51.302 34.3861 51.2716 34.3151 51.2592 34.24C50.9992 32.7 57.4692 31.7 55.7892 29.44C55.7048 29.3241 56.6404 30.0292 56.5 29.9996C56.3596 29.9701 56.124 30.9276 56 30.9996C46 36.8263 35.0326 42.6833 25.0392 48.51C24.2259 48.99 24.1092 47.8233 24.6892 48.51C24.7813 48.6224 24.9104 48.6982 25.0534 48.7239C25.1964 48.7496 25.3438 48.7234 25.4692 48.65C28.1992 47.08 50.3552 34 52.3552 33C52.447 33.0059 51.6729 33.9406 51.7432 34C51.8136 34.0594 52.9787 33.4105 53 33.5C53.0213 33.5896 44.9333 38.5333 44.8971 38.618C44.861 38.7026 52.6065 34.1934 52.5271 34.24C45.9871 38.0133 31.7326 46.3433 25.3792 50.07C24.1292 50.81 23.5392 50.48 22.4192 49.83C16.0592 46.1433 9.68923 42.4667 3.30923 38.8C3.14817 38.7059 3.01509 38.5711 2.92369 38.4094C2.83229 38.2477 2.78588 38.0649 2.78923 37.88L2.82923 34.96C2.83183 34.7683 2.88477 34.58 2.98289 34.4135C3.08102 34.2471 3.22101 34.108 3.38923 34.01L28.1492 19.66C28.4326 19.493 28.6429 19.2292 28.7392 18.92ZM43.6892 12.94C41.1692 14.3667 38.6659 15.82 36.1792 17.3C32.4392 19.52 31.8492 24.81 30.6192 28.64C30.5092 28.9695 30.286 29.2494 29.9892 29.43L22.9492 33.6C22.6331 33.787 22.3924 34.0808 22.2692 34.43L21.3492 37.04C21.3192 37.1281 21.3165 37.2232 21.3417 37.3129C21.3668 37.4025 21.4186 37.4824 21.4901 37.542C21.5616 37.6016 21.6495 37.6381 21.7422 37.6466C21.8349 37.6552 21.928 37.6355 22.0092 37.59L40.7292 26.82C40.8834 26.7321 40.9999 26.5902 41.057 26.4208C41.114 26.2515 41.1077 26.0663 41.0392 25.9L40.3492 24.27C40.3145 24.1871 40.2625 24.1126 40.1966 24.0515C40.1308 23.9904 40.0526 23.9441 39.9673 23.9157C39.8821 23.8872 39.7918 23.8774 39.7024 23.8868C39.613 23.8961 39.5267 23.9245 39.4492 23.97L32.9392 27.76C32.8554 27.8091 32.7587 27.8316 32.6618 27.8246C32.565 27.8176 32.4725 27.7814 32.3967 27.7207C32.3208 27.66 32.2652 27.5778 32.2371 27.4848C32.209 27.3918 32.2097 27.2925 32.2392 27.2L34.3492 20.42C34.4331 20.1487 34.6134 19.9118 34.8592 19.75C36.1992 18.87 45.0792 13.93 45.0292 12.9C45.0249 12.8187 45.0023 12.7395 44.9631 12.6682C44.9238 12.5969 44.869 12.5354 44.8026 12.4883C44.7363 12.4411 44.6601 12.4096 44.5799 12.3961C44.4997 12.3825 44.4174 12.3873 44.3392 12.41C43.9059 12.5367 43.6892 12.7133 43.6892 12.94ZM19.8392 39.53L17.1092 37.91C16.9591 37.8239 16.8416 37.6901 16.7748 37.5293C16.7079 37.3686 16.6955 37.1896 16.7392 37.02L18.0692 31.83C18.1072 31.6779 18.1745 31.535 18.2671 31.4098C18.3598 31.2845 18.4761 31.1792 18.6092 31.1L25.9792 26.76C26.2437 26.6054 26.4425 26.364 26.5392 26.08L27.9992 21.72C28.0256 21.6494 28.0291 21.5722 28.0093 21.4995C27.9895 21.4267 27.9474 21.362 27.8888 21.3145C27.8302 21.267 27.7582 21.2391 27.683 21.2347C27.6077 21.2303 27.5329 21.2496 27.4692 21.29L5.38923 34.22C5.30387 34.2678 5.23279 34.3374 5.18331 34.4218C5.13383 34.5061 5.10775 34.6022 5.10775 34.7C5.10775 34.7978 5.13383 34.8939 5.18331 34.9782C5.23279 35.0626 5.30387 35.1322 5.38923 35.18L23.6192 45.71C23.7648 45.7952 23.9305 45.8402 24.0992 45.8402C24.268 45.8402 24.4336 45.7952 24.5792 45.71L54.7692 28.18C54.8419 28.1378 54.9022 28.0772 54.9441 28.0044C54.986 27.9316 55.008 27.849 55.008 27.765C55.008 27.681 54.986 27.5984 54.9441 27.5256C54.9022 27.4528 54.8419 27.3922 54.7692 27.35L39.8392 18.71C39.6885 18.6235 39.5185 18.5755 39.3441 18.5703C39.1698 18.5651 38.9964 18.6027 38.8392 18.68C38.1692 19.02 35.1592 20 35.4692 20.88C35.494 20.949 35.5332 21.0119 35.584 21.0647C35.6348 21.1175 35.6963 21.1589 35.7643 21.1863C35.8322 21.2137 35.9053 21.2264 35.9785 21.2236C36.0517 21.2208 36.1235 21.2025 36.1892 21.17L37.0592 20.73C37.2252 20.6456 37.4082 20.5991 37.5949 20.5939C37.7816 20.5887 37.9675 20.625 38.1392 20.7C40.6659 21.7867 42.1059 23.7233 42.4592 26.51C42.4796 26.6679 42.4535 26.828 42.3841 26.9703C42.3148 27.1126 42.2052 27.2308 42.0692 27.31L20.8592 39.53C20.7045 39.6205 20.5285 39.6682 20.3492 39.6682C20.17 39.6682 19.994 39.6205 19.8392 39.53Z"/>
</mask>
<path d="M28.7392 18.92C29.9892 14.86 37.5192 11.26 41.4292 9.41C41.5861 9.33292 41.7597 9.29621 41.9343 9.30319C42.1089 9.31018 42.279 9.36064 42.4292 9.45L45.5592 11.32C45.8363 11.4862 46.0659 11.7212 46.2257 12.0019C46.3855 12.2827 46.47 12.5997 46.471 12.922C46.472 13.2443 46.3895 13.561 46.2314 13.841C46.0734 14.1211 45.8452 14.355 45.5692 14.52L41.1092 17.19C41.0267 17.2393 40.9586 17.3094 40.9116 17.3932C40.8646 17.4771 40.8405 17.5718 40.8415 17.6679C40.8425 17.764 40.8687 17.8581 40.9174 17.941C40.9661 18.0238 41.0357 18.0924 41.1192 18.14L56.5592 27.13C56.6926 27.2059 56.8035 27.3162 56.8808 27.4496C56.9581 27.5831 56.9989 27.735 56.9992 27.89V31.09C56.9989 31.2574 56.9545 31.4221 56.8703 31.5677C56.7861 31.7133 56.6651 31.8347 56.5192 31.92L51.9592 34.57C51.8934 34.6083 51.8193 34.63 51.7432 34.6332C51.6672 34.6365 51.5914 34.6213 51.5226 34.5888C51.4537 34.5563 51.3938 34.5076 51.3479 34.4469C51.302 34.3861 51.2716 34.3151 51.2592 34.24C50.9992 32.7 57.4692 31.7 55.7892 29.44C55.7048 29.3241 56.6404 30.0292 56.5 29.9996C56.3596 29.9701 56.124 30.9276 56 30.9996C46 36.8263 35.0326 42.6833 25.0392 48.51C24.2259 48.99 24.1092 47.8233 24.6892 48.51C24.7813 48.6224 24.9104 48.6982 25.0534 48.7239C25.1964 48.7496 25.3438 48.7234 25.4692 48.65C28.1992 47.08 50.3552 34 52.3552 33C52.447 33.0059 51.6729 33.9406 51.7432 34C51.8136 34.0594 52.9787 33.4105 53 33.5C53.0213 33.5896 44.9333 38.5333 44.8971 38.618C44.861 38.7026 52.6065 34.1934 52.5271 34.24C45.9871 38.0133 31.7326 46.3433 25.3792 50.07C24.1292 50.81 23.5392 50.48 22.4192 49.83C16.0592 46.1433 9.68923 42.4667 3.30923 38.8C3.14817 38.7059 3.01509 38.5711 2.92369 38.4094C2.83229 38.2477 2.78588 38.0649 2.78923 37.88L2.82923 34.96C2.83183 34.7683 2.88477 34.58 2.98289 34.4135C3.08102 34.2471 3.22101 34.108 3.38923 34.01L28.1492 19.66C28.4326 19.493 28.6429 19.2292 28.7392 18.92ZM43.6892 12.94C41.1692 14.3667 38.6659 15.82 36.1792 17.3C32.4392 19.52 31.8492 24.81 30.6192 28.64C30.5092 28.9695 30.286 29.2494 29.9892 29.43L22.9492 33.6C22.6331 33.787 22.3924 34.0808 22.2692 34.43L21.3492 37.04C21.3192 37.1281 21.3165 37.2232 21.3417 37.3129C21.3668 37.4025 21.4186 37.4824 21.4901 37.542C21.5616 37.6016 21.6495 37.6381 21.7422 37.6466C21.8349 37.6552 21.928 37.6355 22.0092 37.59L40.7292 26.82C40.8834 26.7321 40.9999 26.5902 41.057 26.4208C41.114 26.2515 41.1077 26.0663 41.0392 25.9L40.3492 24.27C40.3145 24.1871 40.2625 24.1126 40.1966 24.0515C40.1308 23.9904 40.0526 23.9441 39.9673 23.9157C39.8821 23.8872 39.7918 23.8774 39.7024 23.8868C39.613 23.8961 39.5267 23.9245 39.4492 23.97L32.9392 27.76C32.8554 27.8091 32.7587 27.8316 32.6618 27.8246C32.565 27.8176 32.4725 27.7814 32.3967 27.7207C32.3208 27.66 32.2652 27.5778 32.2371 27.4848C32.209 27.3918 32.2097 27.2925 32.2392 27.2L34.3492 20.42C34.4331 20.1487 34.6134 19.9118 34.8592 19.75C36.1992 18.87 45.0792 13.93 45.0292 12.9C45.0249 12.8187 45.0023 12.7395 44.9631 12.6682C44.9238 12.5969 44.869 12.5354 44.8026 12.4883C44.7363 12.4411 44.6601 12.4096 44.5799 12.3961C44.4997 12.3825 44.4174 12.3873 44.3392 12.41C43.9059 12.5367 43.6892 12.7133 43.6892 12.94ZM19.8392 39.53L17.1092 37.91C16.9591 37.8239 16.8416 37.6901 16.7748 37.5293C16.7079 37.3686 16.6955 37.1896 16.7392 37.02L18.0692 31.83C18.1072 31.6779 18.1745 31.535 18.2671 31.4098C18.3598 31.2845 18.4761 31.1792 18.6092 31.1L25.9792 26.76C26.2437 26.6054 26.4425 26.364 26.5392 26.08L27.9992 21.72C28.0256 21.6494 28.0291 21.5722 28.0093 21.4995C27.9895 21.4267 27.9474 21.362 27.8888 21.3145C27.8302 21.267 27.7582 21.2391 27.683 21.2347C27.6077 21.2303 27.5329 21.2496 27.4692 21.29L5.38923 34.22C5.30387 34.2678 5.23279 34.3374 5.18331 34.4218C5.13383 34.5061 5.10775 34.6022 5.10775 34.7C5.10775 34.7978 5.13383 34.8939 5.18331 34.9782C5.23279 35.0626 5.30387 35.1322 5.38923 35.18L23.6192 45.71C23.7648 45.7952 23.9305 45.8402 24.0992 45.8402C24.268 45.8402 24.4336 45.7952 24.5792 45.71L54.7692 28.18C54.8419 28.1378 54.9022 28.0772 54.9441 28.0044C54.986 27.9316 55.008 27.849 55.008 27.765C55.008 27.681 54.986 27.5984 54.9441 27.5256C54.9022 27.4528 54.8419 27.3922 54.7692 27.35L39.8392 18.71C39.6885 18.6235 39.5185 18.5755 39.3441 18.5703C39.1698 18.5651 38.9964 18.6027 38.8392 18.68C38.1692 19.02 35.1592 20 35.4692 20.88C35.494 20.949 35.5332 21.0119 35.584 21.0647C35.6348 21.1175 35.6963 21.1589 35.7643 21.1863C35.8322 21.2137 35.9053 21.2264 35.9785 21.2236C36.0517 21.2208 36.1235 21.2025 36.1892 21.17L37.0592 20.73C37.2252 20.6456 37.4082 20.5991 37.5949 20.5939C37.7816 20.5887 37.9675 20.625 38.1392 20.7C40.6659 21.7867 42.1059 23.7233 42.4592 26.51C42.4796 26.6679 42.4535 26.828 42.3841 26.9703C42.3148 27.1126 42.2052 27.2308 42.0692 27.31L20.8592 39.53C20.7045 39.6205 20.5285 39.6682 20.3492 39.6682C20.17 39.6682 19.994 39.6205 19.8392 39.53Z" fill="#0C674B"/>
<path d="M28.7392 18.92C29.9892 14.86 37.5192 11.26 41.4292 9.41C41.5861 9.33292 41.7597 9.29621 41.9343 9.30319C42.1089 9.31018 42.279 9.36064 42.4292 9.45L45.5592 11.32C45.8363 11.4862 46.0659 11.7212 46.2257 12.0019C46.3855 12.2827 46.47 12.5997 46.471 12.922C46.472 13.2443 46.3895 13.561 46.2314 13.841C46.0734 14.1211 45.8452 14.355 45.5692 14.52L41.1092 17.19C41.0267 17.2393 40.9586 17.3094 40.9116 17.3932C40.8646 17.4771 40.8405 17.5718 40.8415 17.6679C40.8425 17.764 40.8687 17.8581 40.9174 17.941C40.9661 18.0238 41.0357 18.0924 41.1192 18.14L56.5592 27.13C56.6926 27.2059 56.8035 27.3162 56.8808 27.4496C56.9581 27.5831 56.9989 27.735 56.9992 27.89V31.09C56.9989 31.2574 56.9545 31.4221 56.8703 31.5677C56.7861 31.7133 56.6651 31.8347 56.5192 31.92L51.9592 34.57C51.8934 34.6083 51.8193 34.63 51.7432 34.6332C51.6672 34.6365 51.5914 34.6213 51.5226 34.5888C51.4537 34.5563 51.3938 34.5076 51.3479 34.4469C51.302 34.3861 51.2716 34.3151 51.2592 34.24C50.9992 32.7 57.4692 31.7 55.7892 29.44C55.7048 29.3241 56.6404 30.0292 56.5 29.9996C56.3596 29.9701 56.124 30.9276 56 30.9996C46 36.8263 35.0326 42.6833 25.0392 48.51C24.2259 48.99 24.1092 47.8233 24.6892 48.51C24.7813 48.6224 24.9104 48.6982 25.0534 48.7239C25.1964 48.7496 25.3438 48.7234 25.4692 48.65C28.1992 47.08 50.3552 34 52.3552 33C52.447 33.0059 51.6729 33.9406 51.7432 34C51.8136 34.0594 52.9787 33.4105 53 33.5C53.0213 33.5896 44.9333 38.5333 44.8971 38.618C44.861 38.7026 52.6065 34.1934 52.5271 34.24C45.9871 38.0133 31.7326 46.3433 25.3792 50.07C24.1292 50.81 23.5392 50.48 22.4192 49.83C16.0592 46.1433 9.68923 42.4667 3.30923 38.8C3.14817 38.7059 3.01509 38.5711 2.92369 38.4094C2.83229 38.2477 2.78588 38.0649 2.78923 37.88L2.82923 34.96C2.83183 34.7683 2.88477 34.58 2.98289 34.4135C3.08102 34.2471 3.22101 34.108 3.38923 34.01L28.1492 19.66C28.4326 19.493 28.6429 19.2292 28.7392 18.92ZM43.6892 12.94C41.1692 14.3667 38.6659 15.82 36.1792 17.3C32.4392 19.52 31.8492 24.81 30.6192 28.64C30.5092 28.9695 30.286 29.2494 29.9892 29.43L22.9492 33.6C22.6331 33.787 22.3924 34.0808 22.2692 34.43L21.3492 37.04C21.3192 37.1281 21.3165 37.2232 21.3417 37.3129C21.3668 37.4025 21.4186 37.4824 21.4901 37.542C21.5616 37.6016 21.6495 37.6381 21.7422 37.6466C21.8349 37.6552 21.928 37.6355 22.0092 37.59L40.7292 26.82C40.8834 26.7321 40.9999 26.5902 41.057 26.4208C41.114 26.2515 41.1077 26.0663 41.0392 25.9L40.3492 24.27C40.3145 24.1871 40.2625 24.1126 40.1966 24.0515C40.1308 23.9904 40.0526 23.9441 39.9673 23.9157C39.8821 23.8872 39.7918 23.8774 39.7024 23.8868C39.613 23.8961 39.5267 23.9245 39.4492 23.97L32.9392 27.76C32.8554 27.8091 32.7587 27.8316 32.6618 27.8246C32.565 27.8176 32.4725 27.7814 32.3967 27.7207C32.3208 27.66 32.2652 27.5778 32.2371 27.4848C32.209 27.3918 32.2097 27.2925 32.2392 27.2L34.3492 20.42C34.4331 20.1487 34.6134 19.9118 34.8592 19.75C36.1992 18.87 45.0792 13.93 45.0292 12.9C45.0249 12.8187 45.0023 12.7395 44.9631 12.6682C44.9238 12.5969 44.869 12.5354 44.8026 12.4883C44.7363 12.4411 44.6601 12.4096 44.5799 12.3961C44.4997 12.3825 44.4174 12.3873 44.3392 12.41C43.9059 12.5367 43.6892 12.7133 43.6892 12.94ZM19.8392 39.53L17.1092 37.91C16.9591 37.8239 16.8416 37.6901 16.7748 37.5293C16.7079 37.3686 16.6955 37.1896 16.7392 37.02L18.0692 31.83C18.1072 31.6779 18.1745 31.535 18.2671 31.4098C18.3598 31.2845 18.4761 31.1792 18.6092 31.1L25.9792 26.76C26.2437 26.6054 26.4425 26.364 26.5392 26.08L27.9992 21.72C28.0256 21.6494 28.0291 21.5722 28.0093 21.4995C27.9895 21.4267 27.9474 21.362 27.8888 21.3145C27.8302 21.267 27.7582 21.2391 27.683 21.2347C27.6077 21.2303 27.5329 21.2496 27.4692 21.29L5.38923 34.22C5.30387 34.2678 5.23279 34.3374 5.18331 34.4218C5.13383 34.5061 5.10775 34.6022 5.10775 34.7C5.10775 34.7978 5.13383 34.8939 5.18331 34.9782C5.23279 35.0626 5.30387 35.1322 5.38923 35.18L23.6192 45.71C23.7648 45.7952 23.9305 45.8402 24.0992 45.8402C24.268 45.8402 24.4336 45.7952 24.5792 45.71L54.7692 28.18C54.8419 28.1378 54.9022 28.0772 54.9441 28.0044C54.986 27.9316 55.008 27.849 55.008 27.765C55.008 27.681 54.986 27.5984 54.9441 27.5256C54.9022 27.4528 54.8419 27.3922 54.7692 27.35L39.8392 18.71C39.6885 18.6235 39.5185 18.5755 39.3441 18.5703C39.1698 18.5651 38.9964 18.6027 38.8392 18.68C38.1692 19.02 35.1592 20 35.4692 20.88C35.494 20.949 35.5332 21.0119 35.584 21.0647C35.6348 21.1175 35.6963 21.1589 35.7643 21.1863C35.8322 21.2137 35.9053 21.2264 35.9785 21.2236C36.0517 21.2208 36.1235 21.2025 36.1892 21.17L37.0592 20.73C37.2252 20.6456 37.4082 20.5991 37.5949 20.5939C37.7816 20.5887 37.9675 20.625 38.1392 20.7C40.6659 21.7867 42.1059 23.7233 42.4592 26.51C42.4796 26.6679 42.4535 26.828 42.3841 26.9703C42.3148 27.1126 42.2052 27.2308 42.0692 27.31L20.8592 39.53C20.7045 39.6205 20.5285 39.6682 20.3492 39.6682C20.17 39.6682 19.994 39.6205 19.8392 39.53Z" stroke="#0C674B" stroke-width="0.6" mask="url(#path-1-outside-1_753_53758)"/>
</svg>
