<svg width="60" height="60" viewBox="0 0 60 60" fill="none" xmlns="http://www.w3.org/2000/svg">
<g clip-path="url(#clip0_753_53742)">
<path d="M1.23255 10.0062L20.7731 0.2382C22.2556 -0.5028 23.9998 0.5748 23.9998 2.232V10.5H30.9667C32.9149 10.5 34.4998 8.9151 34.4998 6.9669V6C34.4998 4.6383 35.1208 3.4308 36.0796 2.6046C36.2809 1.1433 37.4833 0 38.9998 0H56.9999C58.6567 0 59.9995 1.3431 59.9999 3C59.9999 4.6569 58.6567 6 56.9999 6H38.9998C38.4769 6 38.0098 5.8305 37.5817 5.5953C37.5439 5.7267 37.4998 5.8566 37.4998 6V6.9669C37.4998 10.5705 34.5686 13.5 30.9667 13.5H23.9998V21.768C23.9998 23.4252 22.2556 24.5028 20.7731 23.7618L1.23255 13.9938C-0.41085 13.1724 -0.41085 10.8276 1.23255 10.0062ZM18.0002 33C16.3433 33 15.0002 34.3431 15.0002 36V45H45.0001V36C45.0001 34.3431 43.657 33 42.0001 33H18.0002ZM57.0001 48H31.5001V60H57.0001C58.657 60 60.0001 58.6566 60.0001 57V51C60.0001 49.3431 58.657 48 57.0001 48ZM0.000150114 51V57C0.000150114 58.6566 1.34325 60 3.00015 60H28.5001V48H3.00015C1.34325 48 0.000150114 49.3431 0.000150114 51Z" fill="#0C674B"/>
</g>
<defs>
<clipPath id="clip0_753_53742">
<rect width="60" height="60" fill="white"/>
</clipPath>
</defs>
</svg>
