<svg width="60" height="60" viewBox="0 0 60 60" fill="none" xmlns="http://www.w3.org/2000/svg">
<path d="M36.6034 21.2804C36.0529 21.8309 35.3584 22.1003 34.6444 22.217C34.6765 22.2566 34.6903 22.3049 34.7269 22.3418L35.95 23.5649C37.3667 24.98 38.1473 26.8637 38.1473 28.8677C38.1473 30.8717 37.3664 32.7555 35.95 34.1706L30.076 40.0446L37.2506 47.2192C38.6477 48.6163 38.0858 50.9953 36.211 51.6202L11.5029 59.8589C9.42504 60.5519 7.44832 58.5752 8.14103 56.4973L16.38 31.7888C17.0052 29.9141 19.3839 29.3525 20.781 30.7493L27.9547 37.9233L33.8287 32.0492C34.6783 31.1996 35.1472 30.0701 35.1472 28.8677C35.1472 27.6653 34.6786 26.5358 33.8287 25.6862L32.6056 24.4631C31.651 23.5085 31.2637 22.2344 31.3474 20.9831C30.2029 19.5781 30.2362 17.5312 31.5451 16.2223L46.7198 1.04761C48.1166 -0.349203 50.3814 -0.349203 51.7782 1.04761C53.175 2.44442 53.175 4.70914 51.7782 6.10595L36.6034 21.2804Z" fill="#0C674B"/>
</svg>
