<svg width="60" height="60" viewBox="0 0 60 60" fill="none" xmlns="http://www.w3.org/2000/svg">
<g clip-path="url(#clip0_753_53761)">
<path d="M10 0C4.47715 0 0 4.47715 0 10C0 15.5228 4.47715 20 10 20H50C55.5228 20 60 15.5228 60 10C60 4.47715 55.5228 0 50 0H10Z" fill="#0C674B"/>
<path d="M4 40C1.79086 40 0 41.7909 0 44V56C0 58.2091 1.79086 60 4 60H56C58.2091 60 60 58.2091 60 56V44C60 41.7909 58.2091 40 56 40H4Z" fill="#0C674B"/>
<path d="M22 22C22 21.4477 21.5523 21 21 21C20.4477 21 20 21.4477 20 22V35.5858L15.3431 30.9289C14.9526 30.5384 14.3195 30.5384 13.9289 30.9289C13.5384 31.3195 13.5384 31.9526 13.9289 32.3431L20.2929 38.7071C20.6834 39.0976 21.3166 39.0976 21.7071 38.7071L28.0711 32.3431C28.4616 31.9526 28.4616 31.3195 28.0711 30.9289C27.6805 30.5384 27.0474 30.5384 26.6569 30.9289L22 35.5858V22Z" fill="#0C674B"/>
<path d="M39.7071 21.2929C39.3166 20.9024 38.6834 20.9024 38.2929 21.2929L31.9289 27.6569C31.5384 28.0474 31.5384 28.6805 31.9289 29.0711C32.3195 29.4616 32.9526 29.4616 33.3431 29.0711L38 24.4142V38C38 38.5523 38.4477 39 39 39C39.5523 39 40 38.5523 40 38V24.4142L44.6569 29.0711C45.0474 29.4616 45.6805 29.4616 46.0711 29.0711C46.4616 28.6805 46.4616 28.0474 46.0711 27.6569L39.7071 21.2929Z" fill="#0C674B"/>
</g>
<defs>
<clipPath id="clip0_753_53761">
<rect width="60" height="60" fill="white"/>
</clipPath>
</defs>
</svg>
