<svg width="60" height="60" viewBox="0 0 60 60" fill="none" xmlns="http://www.w3.org/2000/svg">
<path d="M49.3148 41.96C46.4755 41.9649 43.7504 40.7601 41.7389 38.6106C39.7274 36.4611 38.5943 33.5431 38.5889 30.4984C38.5862 28.9908 38.8604 27.4975 39.396 26.1038C39.9315 24.71 40.7178 23.4431 41.71 22.3754C42.7022 21.3077 43.8809 20.46 45.1788 19.8809C46.4766 19.3017 47.8682 19.0024 49.2741 19C52.1134 18.9952 54.8385 20.2 56.85 22.3494C58.8615 24.4989 59.9946 27.4169 60 30.4616C60.0027 31.9692 59.7284 33.4625 59.1929 34.8562C58.6574 36.25 57.871 37.5169 56.8788 38.5846C55.8866 39.6523 54.7079 40.5 53.4101 41.0791C52.1122 41.6583 50.7207 41.9576 49.3148 41.96ZM49.3331 38.52C50.2271 38.517 51.1117 38.3062 51.9363 37.8998C52.7608 37.4935 53.5092 36.8994 54.1388 36.1516C54.7683 35.4038 55.2666 34.5168 55.6053 33.5414C55.944 32.5659 56.1164 31.5211 56.1126 30.4666C56.1089 29.4121 55.9291 28.3685 55.5835 27.3955C55.2379 26.4224 54.7332 25.5389 54.0984 24.7954C53.4636 24.0519 52.711 23.463 51.8836 23.0623C51.0562 22.6616 50.1701 22.4569 49.2761 22.46C48.3821 22.4631 47.4975 22.6738 46.6729 23.0802C45.8484 23.4866 45.1 24.0806 44.4704 24.8284C43.8409 25.5763 43.3426 26.4632 43.0039 27.4387C42.6652 28.4141 42.4928 29.4589 42.4966 30.5134C42.5003 31.5679 42.6801 32.6115 43.0257 33.5846C43.3713 34.5576 43.8759 35.4411 44.5108 36.1846C45.1456 36.9281 45.8982 37.517 46.7256 37.9177C47.553 38.3184 48.4391 38.5231 49.3331 38.52Z" fill="#0C674B"/>
<path d="M32.7781 33.67L36.2178 40.73C36.2514 40.7989 36.2663 40.8752 36.2609 40.9514C36.2554 41.0276 36.2299 41.1011 36.1868 41.1647C36.1436 41.2283 36.0844 41.2797 36.0149 41.314C35.9454 41.3482 35.868 41.3641 35.7904 41.36L32.7578 41.21C32.6101 41.2037 32.4667 41.1575 32.343 41.0765C32.2193 40.9954 32.12 40.8826 32.0556 40.75L28.8602 34.19C28.7931 34.0526 28.6868 33.9366 28.5537 33.8552C28.4205 33.7739 28.2657 33.7305 28.1072 33.73H23.9959C23.9117 33.73 23.8284 33.7463 23.7506 33.778C23.6728 33.8096 23.6021 33.856 23.5426 33.9145C23.4831 33.973 23.4358 34.0425 23.4036 34.1189C23.3714 34.1954 23.3548 34.2773 23.3548 34.36V40.61C23.3548 40.6923 23.3382 40.7737 23.3058 40.8496C23.2735 40.9255 23.2261 40.9943 23.1664 41.052C23.1068 41.1097 23.036 41.1552 22.9583 41.1857C22.8805 41.2163 22.7974 41.2313 22.7137 41.23H20.1696C20.0867 41.23 20.0047 41.2137 19.9282 41.1821C19.8516 41.1504 19.7821 41.104 19.7235 41.0455C19.6649 40.987 19.6184 40.9175 19.5867 40.8411C19.555 40.7647 19.5387 40.6827 19.5387 40.6V20.25C19.5387 20.1138 19.5941 19.9831 19.6931 19.8858C19.792 19.7886 19.9266 19.7326 20.0678 19.73C25.4308 19.67 34.0909 17.81 35.9226 24.71C36.791 27.9967 35.8073 30.7267 32.9715 32.9C32.8532 32.988 32.7693 33.1128 32.7341 33.2532C32.6988 33.3936 32.7144 33.5409 32.7781 33.67ZM29.8982 23.03L24.0061 22.96C23.9211 22.9587 23.8366 22.974 23.7576 23.0051C23.6787 23.0361 23.6068 23.0823 23.5462 23.141C23.4856 23.1996 23.4374 23.2695 23.4046 23.3466C23.3717 23.4237 23.3548 23.5064 23.3548 23.59V29.86C23.3548 30.0174 23.4177 30.1685 23.53 30.2808C23.6424 30.393 23.7951 30.4574 23.9552 30.46C28.0054 30.49 34.9457 30.94 31.6995 24.17C31.5377 23.8335 31.2832 23.5483 30.9648 23.3468C30.6464 23.1453 30.2769 23.0355 29.8982 23.03Z" fill="#0C674B"/>
<path d="M3.76527 34.29V40.73C3.76527 40.8626 3.71166 40.9898 3.61624 41.0836C3.52081 41.1773 3.39139 41.23 3.25645 41.23H0.79376C0.703382 41.2313 0.613638 41.2147 0.529747 41.1812C0.445856 41.1476 0.369493 41.0977 0.305101 41.0344C0.240708 40.9711 0.189571 40.8957 0.154664 40.8126C0.119756 40.7294 0.101775 40.6402 0.101766 40.55L2.07578e-06 20.43C-0.000379638 20.2935 0.0518962 20.1618 0.146305 20.0617C0.240714 19.9615 0.370245 19.9001 0.508821 19.89C6.27883 19.5 14.7252 18.08 16.0787 24.48C18.1852 34.4 10.787 33.43 4.27409 33.77C4.1373 33.7752 4.00787 33.8323 3.91299 33.9292C3.81811 34.0262 3.76516 34.1555 3.76527 34.29ZM12.1099 24.31C10.9294 22.43 6.21778 22.88 4.25373 23.02C4.12145 23.0277 3.99715 23.0848 3.90633 23.1796C3.81551 23.2744 3.76504 23.3998 3.76527 23.53V29.92C3.7651 30.0102 3.78372 30.0994 3.81999 30.1822C3.85626 30.265 3.90941 30.3396 3.97615 30.4014C4.0429 30.4633 4.12182 30.511 4.20807 30.5417C4.29431 30.5725 4.38605 30.5855 4.47761 30.58L10.6547 30.21C10.8434 30.2005 11.028 30.1519 11.1964 30.0675C11.3647 29.983 11.513 29.8646 11.6316 29.72C13.1106 27.96 13.27 26.1567 12.1099 24.31Z" fill="#0C674B"/>
</svg>
