<svg width="60" height="60" viewBox="0 0 60 60" fill="none" xmlns="http://www.w3.org/2000/svg">
<g clip-path="url(#clip0_753_53753)">
<path d="M51.1517 58.482C53.1756 60.506 56.457 60.506 58.4809 58.4821C60.5049 56.4581 60.5049 53.1767 58.481 51.1528L39.4212 34.6208L34.6197 39.4223L51.1517 58.482ZM53.2726 53.2738C54.1251 52.4213 55.5073 52.4213 56.3599 53.2738C57.2124 54.1263 57.2123 55.5085 56.3599 56.361C55.5074 57.2135 54.1252 57.2135 53.2726 56.361C52.4201 55.5085 52.4202 54.1263 53.2726 53.2738Z" fill="#0C674B"/>
<path d="M45.2742 21.037L21.0358 45.2754L24.9013 49.1408L49.1396 24.9024L45.2742 21.037Z" fill="#0C674B"/>
<path d="M24.8399 0.602661L23.0753 2.36723L26.0055 9.32511L18.4882 6.95443L16.3854 9.0572L26.1733 21.5763L13.7891 11.6535L7.52363 17.9189L13.3067 27.9536L3.27208 22.1705L0.601562 24.841L21.0359 45.2753L45.2742 21.037L24.8399 0.602661Z" fill="#0C674B"/>
</g>
<defs>
<clipPath id="clip0_753_53753">
<rect width="60" height="60" fill="white"/>
</clipPath>
</defs>
</svg>
