<svg width="60" height="60" viewBox="0 0 60 60" fill="none" xmlns="http://www.w3.org/2000/svg">
<g clip-path="url(#clip0_753_53762)">
<path d="M60 50.5539C60 55.7709 55.7709 60 50.5539 60H48.4464C43.2294 60 39.0003 55.7706 39.0003 50.5539C39.0003 48.8814 39.4443 47.2389 40.287 45.7941L49.5003 30L58.7136 45.7941C59.5563 47.2389 60 48.8814 60 50.5539ZM28.5 25.5H40.5V0H28.5V25.5ZM0 48C0 51.3138 2.6862 54 6 54H10.5V28.5H0V48ZM48 0H43.5V25.5H45.5886C46.6644 24.5661 48.0336 24 49.5 24C50.9664 24 52.3356 24.5661 53.4114 25.5H54V6C54 2.6862 51.3138 0 48 0ZM13.5 25.5H25.5V0H13.5V25.5ZM0 6V25.5H10.5V0H6C2.6862 0 0 2.6862 0 6ZM28.5 54H33.4188C33.1635 52.8882 33 51.7428 33 50.5548C33 47.8272 33.7266 45.135 35.1006 42.7764L40.5 33.5205V28.5H28.5V54ZM13.5 54H25.5V28.5H13.5V54Z" fill="#0C674B"/>
</g>
<defs>
<clipPath id="clip0_753_53762">
<rect width="60" height="60" fill="white"/>
</clipPath>
</defs>
</svg>
