<svg width="60" height="60" viewBox="0 0 60 60" fill="none" xmlns="http://www.w3.org/2000/svg">
<g clip-path="url(#clip0_753_53756)">
<path d="M26.6667 0H3.33333C1.49233 0 0 1.44259 0 3.22222V25.7778C0 27.5574 1.49233 29 3.33333 29H26.6667C28.5077 29 30 27.5574 30 25.7778V3.22222C30 1.44259 28.5077 0 26.6667 0ZM5 25.7778C4.0795 25.7778 3.33333 25.0563 3.33333 24.1667C3.33333 23.277 4.0795 22.5556 5 22.5556C5.9205 22.5556 6.66667 23.2769 6.66667 24.1667C6.66667 25.0565 5.9205 25.7778 5 25.7778ZM5 6.44444C4.0795 6.44444 3.33333 5.72299 3.33333 4.83333C3.33333 3.94368 4.0795 3.22222 5 3.22222C5.9205 3.22222 6.66667 3.94352 6.66667 4.83333C6.66667 5.72315 5.9205 6.44444 5 6.44444ZM25 25.7778C24.0795 25.7778 23.3333 25.0563 23.3333 24.1667C23.3333 23.277 24.0795 22.5556 25 22.5556C25.9205 22.5556 26.6667 23.2769 26.6667 24.1667C26.6667 25.0565 25.9205 25.7778 25 25.7778ZM25 6.44444C24.0795 6.44444 23.3333 5.72299 23.3333 4.83333C23.3333 3.94368 24.0795 3.22222 25 3.22222C25.9205 3.22222 26.6667 3.94352 26.6667 4.83333C26.6667 5.72315 25.9205 6.44444 25 6.44444Z" fill="#0C674B"/>
<path d="M26.6667 31H3.33333C1.49233 31 0 32.4426 0 34.2222V56.7778C0 58.5574 1.49233 60 3.33333 60H26.6667C28.5077 60 30 58.5574 30 56.7778V34.2222C30 32.4426 28.5077 31 26.6667 31ZM5 56.7778C4.0795 56.7778 3.33333 56.0563 3.33333 55.1667C3.33333 54.277 4.0795 53.5556 5 53.5556C5.9205 53.5556 6.66667 54.2769 6.66667 55.1667C6.66667 56.0565 5.9205 56.7778 5 56.7778ZM5 37.4444C4.0795 37.4444 3.33333 36.723 3.33333 35.8333C3.33333 34.9437 4.0795 34.2222 5 34.2222C5.9205 34.2222 6.66667 34.9435 6.66667 35.8333C6.66667 36.7231 5.9205 37.4444 5 37.4444ZM25 56.7778C24.0795 56.7778 23.3333 56.0563 23.3333 55.1667C23.3333 54.277 24.0795 53.5556 25 53.5556C25.9205 53.5556 26.6667 54.2769 26.6667 55.1667C26.6667 56.0565 25.9205 56.7778 25 56.7778ZM25 37.4444C24.0795 37.4444 23.3333 36.723 23.3333 35.8333C23.3333 34.9437 24.0795 34.2222 25 34.2222C25.9205 34.2222 26.6667 34.9435 26.6667 35.8333C26.6667 36.7231 25.9205 37.4444 25 37.4444Z" fill="#0C674B"/>
<path d="M47.6866 0.00122985C46.2395 0.0100357 44.8378 0.503622 43.706 1.40296C42.5741 2.30229 41.7776 3.55536 41.4438 4.96153L36.1929 26.8711C35.8117 28.4494 35.9991 30.112 36.7224 31.5674C37.4457 33.0228 38.6586 34.1779 40.1484 34.8301C42.0917 35.6457 44.1524 36.1469 46.2528 36.3149L46.2854 38.2324L44.4607 38.2382C43.9801 38.2454 43.5222 38.4421 43.1867 38.7853C42.8511 39.1286 42.6652 39.5906 42.6694 40.0706L42.7481 54.6417C42.7673 55.6398 43.0603 56.6139 43.5952 57.4579C44.1301 58.3019 44.8863 58.9834 45.7816 59.4283C46.6769 59.8731 47.6769 60.0643 48.6727 59.9809C49.6685 59.8976 50.6221 59.5429 51.4295 58.9555C51.6843 58.8014 51.9248 58.6251 52.1484 58.4285C53.1529 57.401 53.7106 56.0187 53.7004 54.5817L53.5962 40.0067C53.594 39.5269 53.4021 39.0672 53.0622 38.7277C52.7188 38.3901 52.2558 38.202 51.7743 38.2044L50.0005 38.218L49.9679 36.3004C52.02 36.0898 54.0279 35.5693 55.9229 34.7567C56.3773 34.5582 56.8084 34.3103 57.2084 34.0176C58.3168 33.1914 59.1529 32.0535 59.6098 30.7494C60.0667 29.4452 60.1237 28.0341 59.7735 26.6965L54.1044 4.89091C53.7442 3.47213 52.9137 2.21644 51.7483 1.3285C50.5829 0.440561 49.1512 -0.0272783 47.6866 0.00122985ZM50.5049 5.76881L56.1886 27.5636C56.3827 28.2976 56.3156 29.0758 55.9987 29.7652C55.6818 30.4546 55.1349 31.0123 54.4515 31.343C52.996 31.9647 51.4592 32.3768 49.8872 32.567L49.7837 23.6127C49.7917 23.3677 49.75 23.1236 49.6611 22.895C49.5723 22.6664 49.4381 22.458 49.2667 22.2824C49.0953 22.1067 48.8902 21.9675 48.6636 21.873C48.437 21.7785 48.1938 21.7307 47.9484 21.7325C47.703 21.7343 47.4605 21.7855 47.2356 21.8833C47.0107 21.981 46.8079 22.1232 46.6395 22.3013C46.471 22.4793 46.3404 22.6896 46.2554 22.9195C46.1705 23.1493 46.1329 23.394 46.145 23.6389L46.2338 32.6039C44.6478 32.4487 43.0916 32.0694 41.6119 31.4771C40.9008 31.1737 40.3213 30.6266 39.978 29.9345C39.6347 29.2423 39.5502 28.4507 39.7396 27.7025L44.9905 5.79292C45.1493 5.14654 45.5266 4.57495 46.0586 4.17463C46.5393 3.82223 47.1207 3.6334 47.7173 3.63593C48.352 3.63479 48.9696 3.84335 49.4738 4.22912C49.9779 4.61489 50.3405 5.15622 50.5049 5.76881Z" fill="#0C674B"/>
</g>
<defs>
<clipPath id="clip0_753_53756">
<rect width="60" height="60" fill="white"/>
</clipPath>
</defs>
</svg>
