<svg width="60" height="60" viewBox="0 0 60 60" fill="none" xmlns="http://www.w3.org/2000/svg">
<path d="M24.8081 38.3572C24.1191 38.3572 23.5605 37.7986 23.5605 37.1096V26.5652C23.5605 24.0607 25.5979 22.0232 28.1024 22.0232H53.6074C54.7359 22.0232 55.6543 21.1049 55.6543 19.9763V10.7871C55.6543 9.6585 54.7359 8.74013 53.6074 8.74013H48.1483C47.4593 8.74013 46.9006 8.18149 46.9006 7.49247C46.9006 6.80346 47.4593 6.24482 48.1483 6.24482H53.6074C56.1121 6.24482 58.1496 8.28261 58.1496 10.7871V19.9763C58.1496 22.4811 56.1121 24.5185 53.6074 24.5185H28.1024C26.9738 24.5185 26.0558 25.4366 26.0558 26.5652V37.1096C26.0558 37.7986 25.4971 38.3572 24.8081 38.3572Z" fill="#0C674B"/>
<path d="M48.1482 5.30413H50.3376C51.5449 5.30413 52.5251 6.28433 52.5251 7.49166V7.49348C52.5251 8.70081 51.5449 9.68101 50.3376 9.68101H48.1482V5.30413Z" fill="#0C674B"/>
<path d="M44.1949 0.46808H5.4213C3.23791 0.46808 1.46792 2.23807 1.46792 4.42145V10.5636C1.46792 12.747 3.23791 14.517 5.4213 14.517H44.1949C46.3783 14.517 48.1483 12.747 48.1483 10.5636V4.42145C48.1483 2.23807 46.3783 0.46808 44.1949 0.46808Z" fill="#0C674B"/>
<path d="M20.8981 37.1097H28.718V55.6251C28.718 57.7815 26.9672 59.5323 24.8108 59.5323H24.8054C22.6489 59.5323 20.8981 57.7815 20.8981 55.6251V37.1097Z" fill="#0C674B"/>
<path d="M53.6073 5.77709H52.3482C51.8609 5.20657 51.1453 4.83648 50.3377 4.83648H48.6161V4.42161C48.6161 1.98357 46.6328 0 44.1948 0H5.42131C2.98327 0 1 1.98357 1 4.42161V10.5636C1 13.0017 2.98327 14.9846 5.42131 14.9846H44.1948C46.6328 14.9846 48.6161 13.0017 48.6161 10.5636V10.1487H50.3377C51.1451 10.1487 51.8605 9.77896 52.3479 9.20813H53.6073C54.4778 9.20813 55.1864 9.91664 55.1864 10.7872V19.9764C55.1864 20.847 54.4778 21.5555 53.6073 21.5555H28.1023C25.3399 21.5555 23.0925 23.8029 23.0925 26.565V36.6419H20.4303V55.6253C20.4303 58.0377 22.3928 60 24.8053 60H24.8108C27.2232 60 29.1858 58.0377 29.1858 55.6253V36.6419H26.5236V26.565C26.5236 25.6944 27.2318 24.9865 28.1023 24.9865H53.6073C56.3697 24.9865 58.6174 22.7392 58.6174 19.9764V10.7872C58.6174 8.02445 56.3697 5.77709 53.6073 5.77709ZM47.6803 10.5636C47.6803 12.4857 46.1168 14.0489 44.1948 14.0489H5.42131C3.49926 14.0489 1.93574 12.4857 1.93574 10.5636V4.42161C1.93574 2.49957 3.49926 0.935736 5.42131 0.935736H44.1948C46.1168 0.935736 47.6803 2.49957 47.6803 4.42161V10.5636ZM50.3377 9.21301H48.6161V5.77222H50.3377C51.2859 5.77222 52.0572 6.54347 52.0572 7.49322C52.0572 8.44175 51.2859 9.21301 50.3377 9.21301ZM28.25 55.6253C28.25 57.5218 26.7072 59.0643 24.8108 59.0643H24.8053C22.9088 59.0643 21.366 57.5218 21.366 55.6253V37.5776H28.25V55.6253ZM57.6817 19.9764C57.6817 22.2232 55.854 24.0508 53.6073 24.0508H28.1023C26.7158 24.0508 25.5878 25.1784 25.5878 26.565V36.6419H24.0283V26.565C24.0283 24.3189 25.8559 22.4912 28.1023 22.4912H53.6073C54.9938 22.4912 56.1221 21.363 56.1221 19.9764V10.7872C56.1221 9.40064 54.9938 8.27239 53.6073 8.27239H52.8625C52.9395 8.02384 52.9929 7.76508 52.9929 7.49139C52.9929 7.21878 52.9396 6.96062 52.8629 6.71283H53.6073C55.854 6.71283 57.6817 8.54045 57.6817 10.7872V19.9764Z" fill="#0C674B"/>
</svg>
