<svg width="60" height="60" viewBox="0 0 60 60" fill="none" xmlns="http://www.w3.org/2000/svg">
<path d="M57.273 44.5732V46.908C57.273 48.7465 56.7289 50.5435 55.7092 52.0732C53.2786 55.7193 49.1863 57.9093 44.8044 57.9093H42.0389C39.5694 57.9093 37.201 56.9283 35.4547 55.1821C33.7084 53.4358 32.7274 51.0674 32.7274 48.5979V48.1298C32.7274 45.6603 33.7084 43.2919 35.4547 41.5456L38.182 38.8183V43.1433C38.182 43.8668 38.4692 44.5604 38.9808 45.072C40.0458 46.137 41.7727 46.137 42.8377 45.072C44.9435 42.966 45.4658 39.7492 44.1337 37.0857L40.9093 30.6368L52.1258 36.2449C55.2804 37.8221 57.273 41.0463 57.273 44.5732ZM10.5175 8.2403C11.0501 6.17084 12.6535 4.72729 14.4219 4.72729H16.6269L14.3125 19.7274H17.072L19.3864 4.72729H24.6356L23.8929 19.216L23.8667 19.7274H26.5968L27.2698 6.60229L27.3661 4.72729H32.6339L32.7301 6.60229L33.403 19.7274H36.133L36.1068 19.216L35.3639 4.72729H40.6131L42.9275 19.7274H45.6869L43.3726 4.72729H45.5776C47.3459 4.72729 48.9493 6.17084 49.4819 8.23757L52.4364 19.7274H55.2518L52.1239 7.55848C51.2822 4.28519 48.5896 2 45.5773 2H14.4222C11.4099 2 8.71722 4.28519 7.87558 7.56121L4.74766 19.7274H7.56303L10.5175 8.2403ZM57.273 22.4546H2.72728C1.21991 22.4546 0 23.6746 0 25.1819C0 26.6893 1.21991 27.9092 2.72728 27.9092H6.13639L10.9091 47.0002V52.4548C10.9091 53.9621 12.1291 55.1821 13.6364 55.1821C15.1438 55.1821 16.3637 53.9621 16.3637 52.4548V47.0002H27.3833C27.6509 43.4866 29.0808 40.2065 31.5983 37.689L34.3256 34.9617C34.9062 34.3811 35.5933 33.9523 36.3364 33.6859L36.0302 33.076C35.8504 32.7166 35.7716 32.334 35.6762 31.9554C35.6012 31.968 35.5332 32.0001 35.4547 32.0001H24.5456C23.7917 32.0001 23.1819 31.3903 23.1819 30.6365C23.1819 29.8827 23.7917 29.2729 24.5456 29.2729H35.4547C35.5313 29.2729 35.5971 29.3042 35.6702 29.3162C35.9055 28.3827 36.3381 27.4933 37.0526 26.7798C38.7119 25.1206 41.2447 24.7104 43.3488 25.7571L53.1731 30.6717L53.8636 27.9092H57.2727C58.7801 27.9092 60 26.6893 60 25.1819C60 23.6746 58.7804 22.4546 57.273 22.4546Z" fill="#0C674B"/>
</svg>
