<svg width="60" height="60" viewBox="0 0 60 60" fill="none" xmlns="http://www.w3.org/2000/svg">
<g clip-path="url(#clip0_753_53745)">
<path d="M39.6763 14.7155L34.7248 25.6666C34.3083 26.5876 35.1221 27.5885 36.1087 27.3688L47.84 24.7573C48.73 24.559 49.1006 23.4937 48.5255 22.7863L45.6562 19.2569L48.6302 16.8391C50.1677 15.5891 50.4024 13.3213 49.1518 11.783L48.8162 11.3703C48.7664 11.309 48.7402 11.2383 48.7107 11.1691C48.9751 11.1209 49.2333 11.0312 49.4565 10.8497L57.1403 4.60298C57.8476 4.02797 57.9549 2.98852 57.3798 2.28123C56.8047 1.57404 55.7654 1.4667 55.0581 2.04172L47.3743 8.28844C46.7269 8.81472 46.6104 9.72005 47.0316 10.4137C46.909 11.0991 47.063 11.8301 47.5356 12.4114L47.8711 12.8241C48.5472 13.6558 48.4207 14.8824 47.5891 15.5585L44.615 17.9763L41.7457 14.4468C41.1706 13.7394 40.0521 13.8847 39.6763 14.7155Z" fill="#0C674B"/>
<path d="M0 31.6667V43.3333H15V31.6667H0ZM18.3333 31.6667V43.3333H41.6667V31.6667H18.3333ZM0 28.3333H28.3333V16.6667H0V28.3333ZM28.3333 46.6667H0V53.3333C0 57.0153 2.98467 60 6.66667 60H28.3333V46.6667ZM60 31.6667H45V43.3333H60V31.6667ZM15 13.3333V0H6.66667C2.98467 0 0 2.98467 0 6.66667V13.3333H15ZM31.6667 46.6667V60H53.3333C57.0153 60 60 57.0153 60 53.3333V46.6667H31.6667Z" fill="#0C674B"/>
</g>
<defs>
<clipPath id="clip0_753_53745">
<rect width="60" height="60" fill="white"/>
</clipPath>
</defs>
</svg>
