<svg width="60" height="60" viewBox="0 0 60 60" fill="none" xmlns="http://www.w3.org/2000/svg">
<g clip-path="url(#clip0_753_53760)">
<path d="M54.0619 0H56.5619C58.2885 0.513333 59.4352 1.61667 60.0019 3.31C59.9152 3.68333 59.9719 4.26667 60.1719 5.06C56.502 7.5 53.502 9 48.6719 10.62C47.502 11 48.502 10.5 43.8819 13.04C43.8558 13.2114 43.8853 13.387 43.9661 13.5415C44.047 13.696 44.175 13.8215 44.3319 13.9C47.9819 15.75 57.6819 18.44 54.1519 24.13C54.1191 24.1817 54.0969 24.2394 54.0867 24.2998C54.0765 24.3601 54.0784 24.4219 54.0924 24.4815C54.1063 24.5411 54.132 24.5974 54.168 24.6469C54.204 24.6964 54.2495 24.7383 54.3019 24.77L60.0019 28.31V46.81C59.7119 47.04 59.1919 47.44 58.8519 47.54C45.5519 51.6933 32.2485 55.8467 18.9419 60H18.1919C12.4585 56.5467 6.66521 53.1933 0.811875 49.94C0.645208 49.8467 0.375208 49.5133 0.001875 48.94L-0.078125 30.97C6.14187 28.6233 12.4952 26.67 18.9819 25.11C19.299 25.0386 19.5813 24.8622 19.7819 24.61C23.0552 20.5833 26.3685 16.6167 29.7219 12.71C33.4719 8.34 36.5419 10.32 40.6819 12C40.8139 12.0524 40.96 12.0571 41.0951 12.0133C41.2302 11.9695 41.3458 11.8799 41.4219 11.76C44.5752 6.73333 48.7885 2.81333 54.0619 0ZM27.8019 24.61C27.5352 23.3167 27.9585 22.4167 29.0719 21.91C32.6819 20.27 36.2619 17.79 39.8919 15.59C40.0011 15.5228 40.0894 15.4264 40.1469 15.3118C40.2044 15.1971 40.2288 15.0687 40.2174 14.941C40.206 14.8132 40.1592 14.6912 40.0822 14.5886C40.0053 14.4859 39.9013 14.4068 39.7819 14.36C36.6619 13.13 34.5619 10.89 31.6019 14.37C25.5019 21.5367 20.9785 27.0433 18.0319 30.89C17.7052 31.31 17.8019 31.4567 18.3219 31.33L51.7619 22.94C52.0135 22.8749 52.2393 22.7348 52.4093 22.5383C52.5794 22.3418 52.6856 22.0981 52.7138 21.8398C52.742 21.5814 52.6909 21.3206 52.5673 21.092C52.4437 20.8634 52.2535 20.6779 52.0219 20.56L43.5819 16.28C43.4669 16.2231 43.339 16.1986 43.212 16.2092C43.085 16.2198 42.9639 16.265 42.8619 16.34C38.3685 19.58 33.6585 22.4833 28.7319 25.05C28.6437 25.0972 28.5457 25.1231 28.4456 25.1256C28.3456 25.1281 28.2464 25.1071 28.156 25.0643C28.0656 25.0216 27.9864 24.9582 27.9249 24.8793C27.8634 24.8004 27.8213 24.7081 27.8019 24.61ZM45.0119 28.81L43.1719 27.9C42.9408 27.7777 42.6689 27.7491 42.4119 27.82L39.3619 28.67C39.2286 28.7069 39.1057 28.775 39.0032 28.8688C38.9007 28.9626 38.8214 29.0795 38.7719 29.21L38.1019 30.89C38.0616 30.9908 37.9987 31.081 37.9182 31.1536C37.8377 31.2262 37.7417 31.2792 37.6379 31.3083C37.5342 31.3374 37.4254 31.3418 37.3202 31.3213C37.215 31.3008 37.1163 31.2558 37.0319 31.19C35.0519 29.6633 32.9719 29.6 30.7919 31C30.6728 31.0772 30.588 31.1977 30.5546 31.3369C30.5212 31.4761 30.5417 31.6238 30.6119 31.75L30.9919 32.44C31.0642 32.5694 31.0996 32.7161 31.0944 32.8642C31.0891 33.0123 31.0432 33.1561 30.9619 33.28C30.5085 33.98 29.9185 34.07 29.1919 33.55C26.9119 31.9033 24.7219 31.7367 22.6219 33.05C22.562 33.087 22.5119 33.1379 22.4757 33.1984C22.4394 33.2589 22.418 33.3274 22.4132 33.3984C22.4083 33.4693 22.4201 33.5409 22.4477 33.6071C22.4753 33.6734 22.5178 33.7326 22.5719 33.78L23.5719 34.64C23.6349 34.6961 23.6851 34.765 23.7192 34.8422C23.7533 34.9194 23.7704 35.0029 23.7695 35.0873C23.7686 35.1716 23.7495 35.2548 23.7137 35.3312C23.6779 35.4075 23.6261 35.4753 23.5619 35.53L22.7919 36.17C22.6602 36.2836 22.4907 36.3444 22.3156 36.3407C22.1405 36.337 21.9719 36.2691 21.8419 36.15C19.6552 34.13 17.2285 33.6867 14.5619 34.82C13.7119 35.18 12.8119 34.86 12.5019 33.99C12.4441 33.83 12.4303 33.6575 12.462 33.4904C12.4936 33.3233 12.5696 33.1677 12.6819 33.04L15.6719 29.6C15.7422 29.5244 15.7856 29.4277 15.7955 29.3249C15.8054 29.2221 15.7812 29.1189 15.7265 29.0313C15.6719 28.9437 15.5899 28.8765 15.4933 28.8401C15.3967 28.8037 15.2907 28.8002 15.1919 28.83L5.38188 31.4C5.30065 31.42 5.22773 31.464 5.17237 31.5263C5.11701 31.5887 5.08173 31.6667 5.07101 31.7503C5.06029 31.8339 5.07461 31.9194 5.11216 31.996C5.14971 32.0725 5.20879 32.1365 5.28188 32.18L18.5019 39.64C18.6377 39.7189 18.7888 39.7685 18.9455 39.7857C19.1022 39.8029 19.261 39.7874 19.4119 39.74L54.5919 28.77C54.6449 28.753 54.6928 28.7229 54.731 28.6824C54.7693 28.6419 54.7966 28.5925 54.8106 28.5386C54.8246 28.4847 54.8247 28.4281 54.8109 28.3742C54.7972 28.3202 54.77 28.2706 54.7319 28.23C52.5719 25.84 47.0719 24.53 45.7419 28.51C45.7183 28.5812 45.6797 28.6464 45.6286 28.7013C45.5775 28.7561 45.5152 28.7993 45.4458 28.8277C45.3765 28.8562 45.3018 28.8694 45.2269 28.8663C45.152 28.8633 45.0787 28.8441 45.0119 28.81Z" fill="#0C674B"/>
</g>
<defs>
<clipPath id="clip0_753_53760">
<rect width="60" height="60" fill="white"/>
</clipPath>
</defs>
</svg>
