<svg width="60" height="60" viewBox="0 0 60 60" fill="none" xmlns="http://www.w3.org/2000/svg">
<g clip-path="url(#clip0_753_53750)">
<path d="M53.3333 0H6.66667C2.98467 0 0 2.98467 0 6.66667V53.3333C0 57.0153 2.98467 60 6.66667 60H53.3333C57.0153 60 60 57.0153 60 53.3333V6.66667C60 2.98467 57.0153 0 53.3333 0ZM10 53.3333C8.159 53.3333 6.66667 51.8407 6.66667 50C6.66667 48.1593 8.159 46.6667 10 46.6667C11.841 46.6667 13.3333 48.159 13.3333 50C13.3333 51.841 11.841 53.3333 10 53.3333ZM10 13.3333C8.159 13.3333 6.66667 11.8407 6.66667 10C6.66667 8.15933 8.159 6.66667 10 6.66667C11.841 6.66667 13.3333 8.159 13.3333 10C13.3333 11.841 11.841 13.3333 10 13.3333ZM50 53.3333C48.159 53.3333 46.6667 51.8407 46.6667 50C46.6667 48.1593 48.159 46.6667 50 46.6667C51.841 46.6667 53.3333 48.159 53.3333 50C53.3333 51.841 51.841 53.3333 50 53.3333ZM50 13.3333C48.159 13.3333 46.6667 11.8407 46.6667 10C46.6667 8.15933 48.159 6.66667 50 6.66667C51.841 6.66667 53.3333 8.159 53.3333 10C53.3333 11.841 51.841 13.3333 50 13.3333Z" fill="#0C674B"/>
</g>
<defs>
<clipPath id="clip0_753_53750">
<rect width="60" height="60" fill="white"/>
</clipPath>
</defs>
</svg>
