<svg width="21" height="20" viewBox="0 0 21 20" fill="none" xmlns="http://www.w3.org/2000/svg">
<path d="M17.0062 16.9644H4.3812C4.22741 16.9636 4.07914 16.9069 3.96412 16.8048C3.84909 16.7028 3.77518 16.5623 3.7562 16.4097L2.64682 6.40967C2.63696 6.32254 2.64553 6.23431 2.672 6.15071C2.69846 6.06711 2.74222 5.99002 2.80043 5.92444C2.85864 5.85886 2.93 5.80627 3.00987 5.77007C3.08973 5.73388 3.17632 5.71489 3.26401 5.71436H18.1234C18.2111 5.71489 18.2977 5.73388 18.3775 5.77007C18.4574 5.80627 18.5288 5.85886 18.587 5.92444C18.6452 5.99002 18.6889 6.06711 18.7154 6.15071C18.7419 6.23431 18.7504 6.32254 18.7406 6.40967L17.6312 16.4097C17.6122 16.5623 17.5383 16.7028 17.4233 16.8048C17.3083 16.9069 17.16 16.9636 17.0062 16.9644Z" stroke="white" stroke-width="1.5" stroke-linecap="round" stroke-linejoin="round"/>
<path d="M7.375 5.625C7.375 4.7962 7.70424 4.00134 8.29029 3.41529C8.87634 2.82924 9.6712 2.5 10.5 2.5C11.3288 2.5 12.1237 2.82924 12.7097 3.41529C13.2958 4.00134 13.625 4.7962 13.625 5.625" stroke="white" stroke-width="1.5" stroke-linecap="round" stroke-linejoin="round"/>
</svg>
