<svg width="29" height="28" viewBox="0 0 29 28" fill="none" xmlns="http://www.w3.org/2000/svg">
<path d="M23.6087 23.75H5.93368C5.71838 23.749 5.51081 23.6696 5.34977 23.5267C5.18874 23.3838 5.08526 23.1871 5.05868 22.9734L3.50556 8.97344C3.49174 8.85146 3.50375 8.72793 3.5408 8.6109C3.57785 8.49386 3.63912 8.38593 3.72061 8.29412C3.80211 8.20231 3.90201 8.12868 4.01382 8.078C4.12563 8.02733 4.24686 8.00075 4.36962 8H25.1727C25.2955 8.00075 25.4167 8.02733 25.5285 8.078C25.6404 8.12868 25.7403 8.20231 25.8218 8.29412C25.9032 8.38593 25.9645 8.49386 26.0016 8.6109C26.0386 8.72793 26.0506 8.85146 26.0368 8.97344L24.4837 22.9734C24.4571 23.1871 24.3536 23.3838 24.1926 23.5267C24.0316 23.6696 23.824 23.749 23.6087 23.75Z" stroke="#111111" stroke-width="1.5" stroke-linecap="round" stroke-linejoin="round"/>
<path d="M10.125 7.875C10.125 6.71468 10.5859 5.60188 11.4064 4.78141C12.2269 3.96094 13.3397 3.5 14.5 3.5C15.6603 3.5 16.7731 3.96094 17.5936 4.78141C18.4141 5.60188 18.875 6.71468 18.875 7.875" stroke="#111111" stroke-width="1.5" stroke-linecap="round" stroke-linejoin="round"/>
<circle cx="20.5" cy="8" r="5.5" fill="#0C674B" stroke="white" stroke-width="3"/>
</svg>
