<svg width="28" height="28" viewBox="0 0 28 28" fill="none" xmlns="http://www.w3.org/2000/svg">
<path d="M14.5023 6.4165C10.588 6.4165 7.41802 9.70104 7.41802 13.7567C7.41802 15.3907 7.93422 16.9001 8.8051 18.1207L7 22.1665L7.47186 21.9401L11.1074 20.201C12.1145 20.772 13.2704 21.0968 14.4991 21.0968C18.4102 21.0968 21.5833 17.8123 21.5833 13.7567C21.5865 9.70104 18.4133 6.4165 14.5023 6.4165ZM18.2803 16.8903C18.2391 17.0937 18.1536 17.2873 18.0301 17.4579C17.8781 17.6679 17.6818 17.8254 17.4569 17.9238C17.2321 18.0223 16.9851 18.0617 16.7381 18.0288C16.0762 17.9468 15.4365 17.727 14.8633 17.3726C14.2014 16.9657 13.3115 16.3324 12.6402 15.4268C11.9244 14.5573 11.5349 13.5401 11.2879 12.7821C11.0757 12.1292 10.9997 11.4335 11.0599 10.7478C11.0821 10.4885 11.1707 10.2457 11.3101 10.039C11.4494 9.83228 11.6426 9.66494 11.8706 9.55666C12.0575 9.46478 12.2601 9.42213 12.4596 9.42213C12.7447 9.42213 13.093 9.41885 13.3337 9.59604C13.7074 9.86838 13.8657 10.4065 13.8657 10.879C13.8657 10.9217 13.8626 10.9676 13.8594 11.0103C13.8372 11.2695 13.8151 11.4959 13.6725 11.7026C13.5332 11.9093 13.2767 12.0898 13.0487 12.2013C13.2229 13.1726 13.5237 13.8945 13.9386 14.3604C14.1159 14.6163 14.3566 14.8592 14.6638 15.0856C14.971 15.312 15.3415 15.5187 15.7817 15.709C15.9337 15.5023 16.1585 15.2792 16.3834 15.1807C16.605 15.0823 16.8267 15.1053 17.0737 15.1381C17.1149 15.1446 17.1592 15.1512 17.2004 15.161C17.6438 15.2595 18.1188 15.5318 18.2993 15.9682C18.4133 16.2504 18.3405 16.6015 18.2803 16.8903Z" fill="#0C674B"/>
<circle cx="14" cy="14" r="13.5" stroke="#0C674B"/>
</svg>
