<svg width="28" height="28" viewBox="0 0 28 28" fill="none" xmlns="http://www.w3.org/2000/svg">
<path d="M23.1087 23.75H5.43368C5.21838 23.749 5.01081 23.6696 4.84977 23.5267C4.68874 23.3838 4.58526 23.1871 4.55868 22.9734L3.00556 8.97344C2.99174 8.85146 3.00375 8.72793 3.0408 8.6109C3.07785 8.49386 3.13912 8.38593 3.22061 8.29412C3.30211 8.20231 3.40201 8.12868 3.51382 8.078C3.62563 8.02733 3.74686 8.00075 3.86962 8H24.6727C24.7955 8.00075 24.9167 8.02733 25.0285 8.078C25.1404 8.12868 25.2403 8.20231 25.3218 8.29412C25.4032 8.38593 25.4645 8.49386 25.5016 8.6109C25.5386 8.72793 25.5506 8.85146 25.5368 8.97344L23.9837 22.9734C23.9571 23.1871 23.8536 23.3838 23.6926 23.5267C23.5316 23.6696 23.324 23.749 23.1087 23.75Z" stroke="#585858" stroke-width="1.5" stroke-linecap="round" stroke-linejoin="round"/>
<path d="M9.625 7.875C9.625 6.71468 10.0859 5.60188 10.9064 4.78141C11.7269 3.96094 12.8397 3.5 14 3.5C15.1603 3.5 16.2731 3.96094 17.0936 4.78141C17.9141 5.60188 18.375 6.71468 18.375 7.875" stroke="#585858" stroke-width="1.5" stroke-linecap="round" stroke-linejoin="round"/>
</svg>
