<svg width="29" height="28" viewBox="0 0 29 28" fill="none" xmlns="http://www.w3.org/2000/svg">
<g clip-path="url(#clip0_234_37619)">
<rect x="0.5" width="28" height="28" rx="4" fill="white"/>
<path d="M14.5 23.625C14.5 23.625 3.125 17.5 3.125 10.2812C3.125 8.71482 3.74726 7.21254 4.8549 6.1049C5.96254 4.99726 7.46482 4.375 9.03125 4.375C11.502 4.375 13.6184 5.72141 14.5 7.875C15.3816 5.72141 17.498 4.375 19.9688 4.375C21.5352 4.375 23.0375 4.99726 24.1451 6.1049C25.2527 7.21254 25.875 8.71482 25.875 10.2812C25.875 17.5 14.5 23.625 14.5 23.625Z" stroke="#111111" stroke-width="1.5" stroke-linecap="round" stroke-linejoin="round"/>
<circle cx="20.5" cy="8" r="5.5" fill="#0C674B" stroke="white" stroke-width="3"/>
</g>
<defs>
<clipPath id="clip0_234_37619">
<rect x="0.5" width="28" height="28" rx="4" fill="white"/>
</clipPath>
</defs>
</svg>
