<svg width="44" height="40" viewBox="0 0 44 40" fill="none" xmlns="http://www.w3.org/2000/svg">
<path d="M21.75 36.9998C21.9167 36.9998 22.1083 36.9581 22.325 36.8748C22.5417 36.7915 22.7167 36.6831 22.85 36.5498L39.7 19.6498C40.1333 19.2165 40.4583 18.7248 40.675 18.1748C40.8917 17.6248 41 17.0665 41 16.4998C41 15.9331 40.8917 15.3665 40.675 14.7998C40.4583 14.2331 40.1333 13.7331 39.7 13.2998L30.7 4.2998C30.2667 3.86647 29.7667 3.54147 29.2 3.3248C28.6333 3.10814 28.0667 2.9998 27.5 2.9998C26.9333 2.9998 26.375 3.10814 25.825 3.3248C25.275 3.54147 24.7833 3.86647 24.35 4.2998L23.45 5.1998L27.5 9.2998C27.9333 9.76647 28.3167 10.3081 28.65 10.9248C28.9833 11.5415 29.15 12.2165 29.15 12.9498C29.15 14.2165 28.6583 15.3331 27.675 16.2998C26.6917 17.2665 25.5667 17.7498 24.3 17.7498C23.4667 17.7498 22.775 17.6248 22.225 17.3748C21.675 17.1248 21.1667 16.7665 20.7 16.2998L17.05 12.6498L8 21.6998C7.83333 21.8665 7.71667 22.0415 7.65 22.2248C7.58333 22.4081 7.55 22.5998 7.55 22.7998C7.55 23.2331 7.69167 23.5915 7.975 23.8748C8.25833 24.1581 8.61667 24.2998 9.05 24.2998C9.25 24.2998 9.44167 24.2498 9.625 24.1498C9.80833 24.0498 9.96667 23.9331 10.1 23.7998L17 16.8998L19.1 18.9998L12.25 25.8498C12.0833 26.0165 11.9667 26.1998 11.9 26.3998C11.8333 26.5998 11.8 26.7998 11.8 26.9998C11.8 27.3998 11.95 27.7498 12.25 28.0498C12.55 28.3498 12.9 28.4998 13.3 28.4998C13.5 28.4998 13.6917 28.4581 13.875 28.3748C14.0583 28.2915 14.2167 28.1831 14.35 28.0498L21.25 21.1498L23.35 23.2498L16.5 30.0998C16.3667 30.2331 16.2583 30.4081 16.175 30.6248C16.0917 30.8415 16.05 31.0498 16.05 31.2498C16.05 31.6498 16.2 31.9998 16.5 32.2998C16.8 32.5998 17.15 32.7498 17.55 32.7498C17.75 32.7498 17.9333 32.7165 18.1 32.6498C18.2667 32.5831 18.4333 32.4665 18.6 32.2998L25.5 25.3998L27.6 27.4998L20.7 34.3998C20.5333 34.5665 20.4167 34.7498 20.35 34.9498C20.2833 35.1498 20.25 35.3331 20.25 35.4998C20.25 35.9665 20.3833 36.3331 20.65 36.5998C20.9167 36.8665 21.2833 36.9998 21.75 36.9998ZM21.75 39.9998C20.65 39.9998 19.6667 39.5915 18.8 38.7748C17.9333 37.9581 17.4167 36.9498 17.25 35.7498C16.1167 35.5831 15.1667 35.1165 14.4 34.3498C13.6333 33.5831 13.1667 32.6331 13 31.4998C11.8667 31.3331 10.925 30.8581 10.175 30.0748C9.425 29.2915 8.96667 28.3498 8.8 27.2498C7.56667 27.0831 6.55 26.5831 5.75 25.7498C4.95 24.9165 4.55 23.9165 4.55 22.7498C4.55 22.1831 4.65833 21.6165 4.875 21.0498C5.09167 20.4831 5.41667 19.9831 5.85 19.5498L17.05 8.3498L22.55 13.8498C22.8167 14.1165 23.1083 14.3248 23.425 14.4748C23.7417 14.6248 24.05 14.6998 24.35 14.6998C24.7833 14.6998 25.1917 14.5081 25.575 14.1248C25.9583 13.7415 26.15 13.3331 26.15 12.8998C26.15 12.6998 26.0917 12.4748 25.975 12.2248C25.8583 11.9748 25.6667 11.7165 25.4 11.4498L18.25 4.2998C17.8167 3.86647 17.3167 3.54147 16.75 3.3248C16.1833 3.10814 15.6167 2.9998 15.05 2.9998C14.4833 2.9998 13.925 3.10814 13.375 3.3248C12.825 3.54147 12.3333 3.86647 11.9 4.2998L4.3 11.8998C3.83333 12.3665 3.50833 12.8581 3.325 13.3748C3.14167 13.8915 3.03333 14.4665 3 15.0998C2.96667 15.7665 3.09167 16.4081 3.375 17.0248C3.65833 17.6415 4 18.1998 4.4 18.6998L2.25 20.8498C1.58333 20.1165 1.04167 19.2331 0.625 18.1998C0.208333 17.1665 0 16.1165 0 15.0498C0 14.0498 0.191667 13.0915 0.575 12.1748C0.958333 11.2581 1.5 10.4498 2.2 9.7498L9.75 2.1998C10.4833 1.46647 11.3167 0.924804 12.25 0.574804C13.1833 0.224804 14.1333 0.0498047 15.1 0.0498047C16.0667 0.0498047 17.0083 0.224804 17.925 0.574804C18.8417 0.924804 19.6667 1.46647 20.4 2.1998L21.3 3.0998L22.2 2.1998C22.9333 1.46647 23.7667 0.924804 24.7 0.574804C25.6333 0.224804 26.5833 0.0498047 27.55 0.0498047C28.5167 0.0498047 29.4583 0.224804 30.375 0.574804C31.2917 0.924804 32.1167 1.46647 32.85 2.1998L41.8 11.1498C42.5333 11.8831 43.0833 12.7165 43.45 13.6498C43.8167 14.5831 44 15.5331 44 16.4998C44 17.4665 43.8167 18.4081 43.45 19.3248C43.0833 20.2415 42.5333 21.0665 41.8 21.7998L24.95 38.6498C24.5167 39.0831 24.025 39.4165 23.475 39.6498C22.925 39.8831 22.35 39.9998 21.75 39.9998Z" fill="#0C674B"/>
</svg>
