<svg width="92" height="41" viewBox="0 0 92 41" fill="none" xmlns="http://www.w3.org/2000/svg">
<path d="M86.3627 31.9659L46.0025 26.4521L5.64056 31.9659C4.77622 32.0835 4.00391 31.414 4.00391 30.5441V16.0809V7.97475C4.00391 7.25797 4.53571 6.65055 5.24876 6.5524L45.807 1.01183C45.9363 0.994228 46.068 0.994228 46.1986 1.01183L86.7565 6.5524C87.4689 6.65055 88.0011 7.25797 88.0011 7.97475V16.0809V30.5441C88.0011 31.414 87.2313 32.0835 86.3627 31.9659Z" fill="#146347"/>
<path d="M26.9874 20.559C24.1437 20.559 21.7188 18.4242 21.7188 15.3838C21.7188 12.3446 24.1302 10.2262 26.8366 10.2262C29.0251 10.2262 30.3636 11.1434 31.2131 12.3896L29.174 13.7679C28.7861 13.1747 28.1622 12.5675 26.8821 12.5675C25.3939 12.5675 24.4862 13.797 24.4862 15.3838C24.4862 16.9706 25.4231 18.2167 26.9709 18.2167C28.2823 18.2167 28.9212 17.6233 29.3529 16.8224L31.4363 18.1556C30.4394 19.8328 29.0406 20.559 26.9874 20.559Z" fill="white"/>
<path d="M38.6186 10.343H41.3272V20.4257H38.6186V16.2005H35.1073V20.4257H32.3984V10.343H35.1073V13.9322H38.6186V10.343Z" fill="white"/>
<path d="M62.9258 20.4257V10.343H65.4694V15.3994L72.0342 10.343V20.4257H69.4888V15.3994L62.9258 20.4257Z" fill="white"/>
<path d="M76.176 10.343H81.8362V12.6115H78.891V20.4257H76.1817V12.6115H76.176H73.2305L76.176 10.343Z" fill="white"/>
<path d="M53.7305 10.343H57.867C59.8747 10.343 61.1859 11.2631 61.1859 12.8052C61.1859 13.9313 60.6794 14.4499 60.0261 14.7611C61.1258 15.0721 62.0626 15.8593 62.0626 17.4003C62.0626 19.3278 60.561 20.4257 58.0452 20.4257H53.7305V10.343ZM57.6586 14.0644C58.2543 14.0644 58.5217 13.7679 58.5217 13.2951C58.5217 12.8206 58.2835 12.4777 57.6878 12.4777H56.3491V14.0644H57.6586ZM57.9855 18.2904C59.0278 18.2904 59.353 17.8454 59.353 17.148C59.353 16.4517 59.0132 16.0214 57.9855 16.0214H56.3491V18.2904H57.9855Z" fill="white"/>
<path d="M17.4711 17.4962C17.0212 17.9459 16.3891 18.2167 15.599 18.2167C13.9048 18.2167 12.939 16.9753 12.9357 15.3919V10.8682C11.3049 11.7153 10.168 13.3407 10.168 15.3838C10.168 18.4242 12.6814 20.559 15.599 20.559C16.251 20.559 16.8827 20.4514 17.4711 20.2518V17.4962Z" fill="white"/>
<path d="M15.5958 10.2262C14.9413 10.2262 14.3082 10.333 13.7188 10.5328V13.2847C14.1683 12.836 14.8026 12.5675 15.5958 12.5675C17.2917 12.5675 18.2594 13.797 18.2594 15.3838C18.2594 15.4395 18.2575 15.4951 18.2559 15.5505V19.915C19.8882 19.0634 21.0277 17.4298 21.0277 15.3838C21.0277 12.3446 18.5131 10.2262 15.5958 10.2262Z" fill="white"/>
<path d="M47.6122 10.2262C46.9595 10.2262 46.3275 10.3326 45.7383 10.5319V13.282C46.1877 12.8352 46.8207 12.5675 47.6122 12.5675C49.2757 12.5675 50.2366 13.7487 50.2753 15.2889V15.2941C50.276 15.3238 50.277 15.353 50.277 15.3838C50.277 15.4135 50.276 15.4443 50.2753 15.4731V19.9131C51.9069 19.0613 53.045 17.428 53.045 15.3838C53.045 12.3446 50.5302 10.2262 47.6122 10.2262Z" fill="white"/>
<path d="M49.4864 17.4953C49.037 17.9456 48.404 18.2167 47.6121 18.2167C45.9157 18.2167 44.9494 16.9706 44.9494 15.3838C44.9494 15.3496 44.9504 15.3152 44.9511 15.2811V10.8667C43.3191 11.714 42.1797 13.34 42.1797 15.3838C42.1797 18.4242 44.6968 20.559 47.6121 20.559C48.2655 20.559 48.8975 20.4514 49.4864 20.2512V17.4953Z" fill="white"/>
<path d="M6.35261 36.2808C7.30273 36.2808 8.33146 36.7966 8.50901 38.018C8.10887 38.018 7.75471 38.018 7.35497 38.018C7.19176 37.5544 6.84398 37.3459 6.35261 37.3459C5.66476 37.3459 5.2125 37.8614 5.2125 38.6188C5.2125 39.2913 5.658 39.8784 6.35261 39.8849C6.85074 39.8849 7.25049 39.6371 7.37446 39.1474C7.76798 39.1474 8.12862 39.1474 8.52849 39.1474C8.35759 40.4399 7.32845 40.9488 6.35261 40.9488C5.18585 40.9557 4.00663 40.1725 4 38.6188C4.00663 37.0646 5.18585 36.2808 6.35261 36.2808Z" fill="#146347"/>
<path d="M8.97266 37.378C8.97266 37.0257 8.97266 36.6795 8.97266 36.3332H12.3805C12.3805 36.6795 12.3805 37.0257 12.3805 37.378H11.2602V40.9035C10.8733 40.9035 10.4864 40.9035 10.1003 40.9035V37.378H8.97266Z" fill="#146347"/>
<path d="M15.1214 37.378C14.846 37.3713 14.5511 37.378 14.2829 37.378C14.2829 37.7499 14.2829 38.3114 14.2829 38.6841H15.1214C15.7635 38.6841 15.803 37.3845 15.1214 37.378ZM13.1094 40.9035C13.1094 39.382 13.1094 37.8614 13.1094 36.3332C13.7715 36.3332 14.4529 36.3332 15.1278 36.3332C17.3236 36.34 17.3236 39.7343 15.1278 39.7343H14.2829V40.9035C13.8898 40.9035 13.4957 40.9035 13.1094 40.9035Z" fill="#146347"/>
<path d="M20.8814 38.6248C20.8814 36.9797 18.5809 36.9797 18.5809 38.6248C18.5809 40.2835 20.8814 40.2835 20.8814 38.6248ZM17.375 38.6248C17.375 35.4648 22.081 35.4648 22.081 38.6248C22.081 41.7919 17.375 41.7919 17.375 38.6248Z" fill="#146347"/>
<path d="M24.6856 34.9033C24.4562 34.9166 24.2326 34.9423 24.0095 34.969C24.0302 35.7004 24.4429 36.0848 25.1508 36.0848C25.8779 36.0848 26.2711 35.7004 26.2973 34.969C26.0746 34.9423 25.8518 34.9166 25.622 34.9033C25.5826 35.1769 25.4059 35.2624 25.1374 35.2624C24.8622 35.2624 24.7049 35.145 24.6856 34.9033ZM23.4265 40.9106H23.0078V36.3332C23.4074 36.3332 23.8068 36.3332 24.2069 36.3332V38.5727L26.5267 36.3137H26.9529V40.9035C26.5532 40.9035 26.1468 40.9035 25.7404 40.9035V38.6576L23.4265 40.9106Z" fill="#146347"/>
<path d="M33.1031 38.6248C33.1031 36.9797 30.803 36.9797 30.803 38.6248C30.803 40.2835 33.1031 40.2835 33.1031 38.6248ZM29.5977 38.6248C29.5977 35.4648 34.3027 35.4648 34.3027 38.6248C34.3027 41.7919 29.5977 41.7919 29.5977 38.6248Z" fill="#146347"/>
<path d="M37.2667 36.2808C38.2176 36.2808 39.2464 36.7966 39.4229 38.018C39.0231 38.018 38.669 38.018 38.2695 38.018C38.1053 37.5544 37.7579 37.3459 37.2667 37.3459C36.5785 37.3459 36.1265 37.8614 36.1265 38.6188C36.1265 39.2913 36.5719 39.8784 37.2667 39.8849C37.7645 39.8849 38.1643 39.6371 38.2896 39.1474C38.6823 39.1474 39.0434 39.1474 39.4426 39.1474C39.2722 40.4399 38.2438 40.9488 37.2667 40.9488C36.1 40.9557 34.9207 40.1725 34.9141 38.6188C34.9207 37.0646 36.1 36.2808 37.2667 36.2808Z" fill="#146347"/>
<path d="M44.1617 40.9035C43.7619 40.9035 43.3627 40.9035 42.9626 40.9035V39.0689H41.5468V40.9035C41.147 40.9035 40.7407 40.9035 40.3477 40.9035V36.3332C40.7407 36.3332 41.147 36.3332 41.5468 36.3332V37.9916H42.9626V36.3332C43.3627 36.3332 43.7619 36.3332 44.1617 36.3332V40.9035Z" fill="#146347"/>
<path d="M48.5577 38.6248C48.5577 36.9797 46.2571 36.9797 46.2571 38.6248C46.2571 40.2835 48.5577 40.2835 48.5577 38.6248ZM45.0508 38.6248C45.0508 35.4648 49.7569 35.4648 49.7569 38.6248C49.7569 41.7919 45.0508 41.7919 45.0508 38.6248Z" fill="#146347"/>
<path d="M51.7782 39.0889V39.8652H52.715C53.1871 39.8652 53.1804 39.0889 52.7086 39.0889H51.7782ZM51.7782 37.378V38.1155H52.5192C52.9835 38.1155 52.9835 37.378 52.512 37.378H51.7782ZM53.6722 38.527C54.0452 38.7166 54.2231 39.0559 54.2231 39.4605C54.2159 40.2574 53.7312 40.9035 52.7941 40.9035H50.6445V36.3332H52.6043C53.3966 36.3332 54.0326 36.9468 54.0326 37.7371C54.0326 38.0113 53.8955 38.3439 53.6722 38.527Z" fill="#146347"/>
<path d="M56.8753 38.1287L56.358 39.3297H57.4065L56.8753 38.1287ZM57.7867 40.3289H55.9782L55.7094 40.9035H54.5625V40.7336L56.6269 36.2751H57.1312L59.2024 40.7336V40.9035H58.0551L57.7867 40.3289Z" fill="#146347"/>
<path d="M59.0781 37.378C59.0781 37.0257 59.0781 36.6795 59.0781 36.3332H62.4869C62.4869 36.6795 62.4869 37.0257 62.4869 37.378H61.3665V40.9035C60.9796 40.9035 60.5926 40.9035 60.206 40.9035V37.378H59.0781Z" fill="#146347"/>
<path d="M66.0796 37.378C65.397 37.378 65.0572 37.378 64.3821 37.378V38.0244H65.9411C65.9411 38.3706 65.9411 38.7166 65.9411 39.0624H64.3821C64.3821 39.3297 64.3821 39.5914 64.3821 39.8652C65.0572 39.8652 65.4496 39.8652 66.1383 39.8652C66.1383 40.2053 66.1383 40.5576 66.1383 40.9035C65.0627 40.9035 64.2769 40.9035 63.2148 40.9035C63.2148 39.3755 63.2148 37.8477 63.2148 36.3332C64.2769 36.3332 65.0046 36.3332 66.0796 36.3332C66.0796 36.6723 66.0796 37.0257 66.0796 37.378Z" fill="#146347"/>
<path d="M67.7172 40.9035H66.5703V40.7336L68.6354 36.2751H69.1394L71.2102 40.7336V40.9035H70.0633L68.8835 38.2265L67.7172 40.9035Z" fill="#146347"/>
<path d="M72.9862 38.7487C72.9862 39.1213 72.9862 39.4861 72.9862 39.8588C73.2544 39.8588 73.5493 39.8652 73.8253 39.8588C74.5065 39.8523 74.4664 38.7487 73.8253 38.7487H72.9862ZM72.9862 37.6978H73.8314C76.0274 37.6978 76.0274 40.8971 73.8314 40.9035C73.1559 40.9035 72.4747 40.9035 71.8125 40.9035C71.8125 39.3755 71.8125 37.8549 71.8125 36.3332C72.1991 36.3332 72.5925 36.3332 72.9862 36.3332V37.6978Z" fill="#146347"/>
<path d="M80.1806 40.9035C79.7818 40.9035 79.3812 40.9035 78.9814 40.9035V39.0689H77.566V40.9035C77.1665 40.9035 76.7596 40.9035 76.3672 40.9035V36.3332C76.7596 36.3332 77.1665 36.3332 77.566 36.3332V37.9916H78.9814V36.3332C79.3812 36.3332 79.7818 36.3332 80.1806 36.3332V40.9035Z" fill="#146347"/>
<path d="M84.5798 38.6248C84.5798 36.9797 82.2802 36.9797 82.2802 38.6248C82.2802 40.2835 84.5798 40.2835 84.5798 38.6248ZM81.0742 38.6248C81.0742 35.4648 85.7796 35.4648 85.7796 38.6248C85.7796 41.7919 81.0742 41.7919 81.0742 38.6248Z" fill="#146347"/>
<path d="M86.6124 40.2771C86.6124 39.9112 86.8945 39.676 87.2549 39.676C87.6157 39.676 87.8975 39.9112 87.8975 40.2771C87.8975 40.6355 87.6157 40.8711 87.2549 40.8711C86.8945 40.8711 86.6124 40.6355 86.6124 40.2771ZM86.5859 36.2352H87.8975L87.8255 39.5065H86.6847L86.5859 36.2352Z" fill="#146347"/>
</svg>
