<svg width="84" height="40" viewBox="0 0 84 40" fill="none" xmlns="http://www.w3.org/2000/svg">
<path d="M82.3609 30.9659L42.0007 25.4521L1.63876 30.9659C0.774429 31.0835 0.00211334 30.414 0.00211334 29.5441V15.0809V6.97476C0.00211334 6.25798 0.533919 5.65055 1.24697 5.55241L41.8052 0.0118351C41.9345 -0.00576401 42.0662 -0.00576401 42.1969 0.0118351L82.7547 5.55241C83.4671 5.65055 83.9993 6.25798 83.9993 6.97476V15.0809V29.5441C83.9993 30.414 83.2295 31.0835 82.3609 30.9659Z" fill="#146347"/>
<path d="M22.989 19.559C20.1454 19.559 17.7204 17.4242 17.7204 14.3838C17.7204 11.3446 20.1319 9.22618 22.8383 9.22618C25.0268 9.22618 26.3653 10.1434 27.2148 11.3895L25.1757 12.7679C24.7878 12.1747 24.1639 11.5675 22.8838 11.5675C21.3956 11.5675 20.4879 12.797 20.4879 14.3838C20.4879 15.9706 21.4248 17.2166 22.9726 17.2166C24.284 17.2166 24.9229 16.6233 25.3546 15.8224L27.438 17.1556C26.4411 18.8328 25.0423 19.559 22.989 19.559Z" fill="white"/>
<path d="M34.6186 9.34305H37.3272V19.4257H34.6186V15.2005H31.1073V19.4257H28.3984V9.34305H31.1073V12.9322H34.6186V9.34305Z" fill="white"/>
<path d="M58.9273 19.4257V9.34305H61.4709V14.3994L68.0356 9.34305V19.4257H65.4903V14.3994L58.9273 19.4257Z" fill="white"/>
<path d="M72.1746 9.34305H77.8348V11.6115H74.8896V19.4257H72.1803V11.6115H72.1746H69.2291L72.1746 9.34305Z" fill="white"/>
<path d="M49.729 9.34305H53.8655C55.8732 9.34305 57.1843 10.2631 57.1843 11.8052C57.1843 12.9313 56.6779 13.4499 56.0245 13.7611C57.1243 14.0721 58.0611 14.8593 58.0611 16.4003C58.0611 18.3278 56.5595 19.4257 54.0437 19.4257H49.729V9.34305ZM53.6571 13.0644C54.2528 13.0644 54.5202 12.7679 54.5202 12.2951C54.5202 11.8207 54.282 11.4777 53.6863 11.4777H52.3476V13.0644H53.6571ZM53.9839 17.2904C55.0263 17.2904 55.3515 16.8454 55.3515 16.148C55.3515 15.4517 55.0117 15.0214 53.9839 15.0214H52.3476V17.2904H53.9839Z" fill="white"/>
<path d="M13.4696 16.4961C13.0197 16.9459 12.3876 17.2166 11.5975 17.2166C9.9033 17.2166 8.93751 15.9753 8.93422 14.3919V9.86817C7.3034 10.7153 6.16647 12.3407 6.16647 14.3838C6.16647 17.4242 8.67992 19.559 11.5975 19.559C12.2495 19.559 12.8812 19.4514 13.4696 19.2517V16.4961Z" fill="white"/>
<path d="M11.5975 9.22618C10.943 9.22618 10.3099 9.333 9.72045 9.53277V12.2847C10.17 11.836 10.8043 11.5675 11.5975 11.5675C13.2934 11.5675 14.2611 12.797 14.2611 14.3838C14.2611 14.4394 14.2592 14.4951 14.2576 14.5505V18.915C15.8899 18.0634 17.0294 16.4298 17.0294 14.3838C17.0294 11.3446 14.5148 9.22618 11.5975 9.22618Z" fill="white"/>
<path d="M43.6106 9.22618C42.9578 9.22618 42.3258 9.33259 41.7366 9.53196V12.282C42.186 11.8352 42.819 11.5675 43.6106 11.5675C45.2741 11.5675 46.235 12.7487 46.2737 14.2889V14.2942C46.2743 14.3238 46.2754 14.353 46.2754 14.3838C46.2754 14.4135 46.2743 14.4444 46.2737 14.4732V18.9132C47.9053 18.0613 49.0433 16.428 49.0433 14.3838C49.0433 11.3446 46.5286 9.22618 43.6106 9.22618Z" fill="white"/>
<path d="M45.4848 16.4953C45.0354 16.9456 44.4024 17.2166 43.6106 17.2166C41.9141 17.2166 40.9478 15.9706 40.9478 14.3838C40.9478 14.3496 40.9488 14.3152 40.9495 14.2811V9.86671C39.3176 10.714 38.1781 12.34 38.1781 14.3838C38.1781 17.4242 40.6953 19.559 43.6106 19.559C44.2639 19.559 44.8959 19.4514 45.4848 19.2512V16.4953Z" fill="white"/>
<path d="M2.35261 35.2808C3.30273 35.2808 4.33146 35.7966 4.50901 37.018C4.10887 37.018 3.75471 37.018 3.35497 37.018C3.19176 36.5544 2.84398 36.3459 2.35261 36.3459C1.66476 36.3459 1.2125 36.8614 1.2125 37.6188C1.2125 38.2913 1.658 38.8784 2.35261 38.8849C2.85074 38.8849 3.25049 38.6371 3.37446 38.1474C3.76798 38.1474 4.12862 38.1474 4.52849 38.1474C4.35759 39.4399 3.32845 39.9488 2.35261 39.9488C1.18585 39.9557 0.00662934 39.1725 0 37.6188C0.00662934 36.0646 1.18585 35.2808 2.35261 35.2808Z" fill="#146347"/>
<path d="M4.97412 36.378C4.97412 36.0257 4.97412 35.6795 4.97412 35.3332H8.38198C8.38198 35.6795 8.38198 36.0257 8.38198 36.378H7.26162V39.9035C6.87474 39.9035 6.48787 39.9035 6.10178 39.9035V36.378H4.97412Z" fill="#146347"/>
<path d="M11.1218 36.378C10.8464 36.3713 10.5515 36.378 10.2833 36.378C10.2833 36.7499 10.2833 37.3114 10.2833 37.6841H11.1218C11.7639 37.6841 11.8034 36.3845 11.1218 36.378ZM9.10976 39.9035C9.10976 38.382 9.10976 36.8614 9.10976 35.3332C9.77187 35.3332 10.4533 35.3332 11.1282 35.3332C13.324 35.34 13.324 38.7343 11.1282 38.7343H10.2833V39.9035C9.89016 39.9035 9.49609 39.9035 9.10976 39.9035Z" fill="#146347"/>
<path d="M16.8822 37.6248C16.8822 35.9797 14.5817 35.9797 14.5817 37.6248C14.5817 39.2835 16.8822 39.2835 16.8822 37.6248ZM13.3758 37.6248C13.3758 34.4648 18.0819 34.4648 18.0819 37.6248C18.0819 40.7919 13.3758 40.7919 13.3758 37.6248Z" fill="#146347"/>
<path d="M20.684 33.9033C20.4546 33.9166 20.2311 33.9424 20.008 33.9691C20.0286 34.7004 20.4414 35.0849 21.1493 35.0849C21.8764 35.0849 22.2696 34.7004 22.2957 33.9691C22.073 33.9424 21.8502 33.9166 21.6205 33.9033C21.5811 34.1769 21.4044 34.2624 21.1359 34.2624C20.8606 34.2624 20.7034 34.145 20.684 33.9033ZM19.425 39.9106H19.0063V35.3332C19.4059 35.3332 19.8052 35.3332 20.2054 35.3332V37.5728L22.5251 35.3137H22.9514V39.9035C22.5516 39.9035 22.1452 39.9035 21.7389 39.9035V37.6576L19.425 39.9106Z" fill="#146347"/>
<path d="M29.105 37.6248C29.105 35.9797 26.8049 35.9797 26.8049 37.6248C26.8049 39.2835 29.105 39.2835 29.105 37.6248ZM25.5995 37.6248C25.5995 34.4648 30.3046 34.4648 30.3046 37.6248C30.3046 40.7919 25.5995 40.7919 25.5995 37.6248Z" fill="#146347"/>
<path d="M33.2671 35.2808C34.2181 35.2808 35.2469 35.7966 35.4234 37.018C35.0235 37.018 34.6695 37.018 34.27 37.018C34.1057 36.5544 33.7584 36.3459 33.2671 36.3459C32.579 36.3459 32.127 36.8614 32.127 37.6188C32.127 38.2913 32.5724 38.8784 33.2671 38.8849C33.765 38.8849 34.1648 38.6371 34.29 38.1474C34.6828 38.1474 35.0439 38.1474 35.4431 38.1474C35.2727 39.4399 34.2442 39.9488 33.2671 39.9488C32.1005 39.9557 30.9212 39.1725 30.9145 37.6188C30.9212 36.0646 32.1005 35.2808 33.2671 35.2808Z" fill="#146347"/>
<path d="M40.1617 39.9035C39.7618 39.9035 39.3627 39.9035 38.9625 39.9035V38.0689H37.5468V39.9035C37.1469 39.9035 36.7407 39.9035 36.3476 39.9035V35.3332C36.7407 35.3332 37.1469 35.3332 37.5468 35.3332V36.9916H38.9625V35.3332C39.3627 35.3332 39.7618 35.3332 40.1617 35.3332V39.9035Z" fill="#146347"/>
<path d="M44.5596 37.6248C44.5596 35.9797 42.259 35.9797 42.259 37.6248C42.259 39.2835 44.5596 39.2835 44.5596 37.6248ZM41.0527 37.6248C41.0527 34.4648 45.7588 34.4648 45.7588 37.6248C45.7588 40.7919 41.0527 40.7919 41.0527 37.6248Z" fill="#146347"/>
<path d="M47.7776 38.0889V38.8652H48.7144C49.1866 38.8652 49.1798 38.0889 48.708 38.0889H47.7776ZM47.7776 36.378V37.1155H48.5186C48.9829 37.1155 48.9829 36.378 48.5115 36.378H47.7776ZM49.6716 37.527C50.0446 37.7166 50.2225 38.056 50.2225 38.4605C50.2154 39.2574 49.7307 39.9035 48.7935 39.9035H46.644V35.3332H48.6038C49.396 35.3332 50.0321 35.9468 50.0321 36.7371C50.0321 37.0113 49.8949 37.3439 49.6716 37.527Z" fill="#146347"/>
<path d="M52.8761 37.1287L52.3588 38.3297H53.4073L52.8761 37.1287ZM53.7874 39.3289H51.979L51.7102 39.9035H50.5633V39.7336L52.6276 35.2751H53.132L55.2032 39.7336V39.9035H54.0559L53.7874 39.3289Z" fill="#146347"/>
<path d="M55.0779 36.378C55.0779 36.0257 55.0779 35.6795 55.0779 35.3332H58.4867C58.4867 35.6795 58.4867 36.0257 58.4867 36.378H57.3663V39.9035C56.9793 39.9035 56.5924 39.9035 56.2058 39.9035V36.378H55.0779Z" fill="#146347"/>
<path d="M62.0785 36.378C61.3959 36.378 61.0561 36.378 60.381 36.378V37.0244H61.94C61.94 37.3706 61.94 37.7166 61.94 38.0624H60.381C60.381 38.3297 60.381 38.5914 60.381 38.8652C61.0561 38.8652 61.4485 38.8652 62.1372 38.8652C62.1372 39.2053 62.1372 39.5576 62.1372 39.9035C61.0616 39.9035 60.2758 39.9035 59.2137 39.9035C59.2137 38.3755 59.2137 36.8478 59.2137 35.3332C60.2758 35.3332 61.0035 35.3332 62.0785 35.3332C62.0785 35.6723 62.0785 36.0257 62.0785 36.378Z" fill="#146347"/>
<path d="M63.7165 39.9035H62.5696V39.7336L64.6346 35.2751H65.1387L67.2095 39.7336V39.9035H66.0626L64.8828 37.2265L63.7165 39.9035Z" fill="#146347"/>
<path d="M68.986 37.7487C68.986 38.1213 68.986 38.4861 68.986 38.8588C69.2542 38.8588 69.5491 38.8652 69.8251 38.8588C70.5063 38.8523 70.4663 37.7487 69.8251 37.7487H68.986ZM68.986 36.6978H69.8312C72.0273 36.6978 72.0273 39.8971 69.8312 39.9035C69.1558 39.9035 68.4745 39.9035 67.8123 39.9035C67.8123 38.3755 67.8123 36.8549 67.8123 35.3332C68.1989 35.3332 68.5923 35.3332 68.986 35.3332V36.6978Z" fill="#146347"/>
<path d="M76.1814 39.9035C75.7826 39.9035 75.3821 39.9035 74.9823 39.9035V38.0689H73.5669V39.9035C73.1674 39.9035 72.7604 39.9035 72.368 39.9035V35.3332C72.7604 35.3332 73.1674 35.3332 73.5669 35.3332V36.9916H74.9823V35.3332C75.3821 35.3332 75.7826 35.3332 76.1814 35.3332V39.9035Z" fill="#146347"/>
<path d="M80.5793 37.6248C80.5793 35.9797 78.2797 35.9797 78.2797 37.6248C78.2797 39.2835 80.5793 39.2835 80.5793 37.6248ZM77.0738 37.6248C77.0738 34.4648 81.7792 34.4648 81.7792 37.6248C81.7792 40.7919 77.0738 40.7919 77.0738 37.6248Z" fill="#146347"/>
<path d="M82.6111 39.2771C82.6111 38.9112 82.8932 38.676 83.2536 38.676C83.6144 38.676 83.8961 38.9112 83.8961 39.2771C83.8961 39.6355 83.6144 39.8711 83.2536 39.8711C82.8932 39.8711 82.6111 39.6355 82.6111 39.2771ZM82.5846 35.2352H83.8961L83.8242 38.5065H82.6834L82.5846 35.2352Z" fill="#146347"/>
</svg>
