<svg width="48" height="48" viewBox="0 0 48 48" fill="none" xmlns="http://www.w3.org/2000/svg">
<path d="M7.5 12V36C7.5 36.7956 7.81607 37.5587 8.37868 38.1213C8.94129 38.6839 9.70435 39 10.5 39H40.5C40.8978 39 41.2794 38.842 41.5607 38.5607C41.842 38.2794 42 37.8978 42 37.5V16.5C42 16.1022 41.842 15.7206 41.5607 15.4393C41.2794 15.158 40.8978 15 40.5 15H10.5C9.70435 15 8.94129 14.6839 8.37868 14.1213C7.81607 13.5587 7.5 12.7956 7.5 12ZM7.5 12C7.5 11.2044 7.81607 10.4413 8.37868 9.87868C8.94129 9.31607 9.70435 9 10.5 9H36" stroke="#0C674B" stroke-width="1.5" stroke-linecap="round" stroke-linejoin="round"/>
<path d="M35.25 27C35.25 27.8284 34.5784 28.5 33.75 28.5C32.9216 28.5 32.25 27.8284 32.25 27C32.25 26.1716 32.9216 25.5 33.75 25.5C34.5784 25.5 35.25 26.1716 35.25 27Z" fill="#0C674B" stroke="#0C674B" stroke-width="1.5"/>
</svg>
