<svg width="48" height="48" viewBox="0 0 48 48" fill="none" xmlns="http://www.w3.org/2000/svg">
<path d="M19.8215 10.0703H11.4644C10.6951 10.0703 10.0715 10.6939 10.0715 11.4632V19.8203C10.0715 20.5896 10.6951 21.2132 11.4644 21.2132H19.8215C20.5908 21.2132 21.2144 20.5896 21.2144 19.8203V11.4632C21.2144 10.6939 20.5908 10.0703 19.8215 10.0703Z" stroke="#0C674B" stroke-width="1.5" stroke-linecap="round" stroke-linejoin="round"/>
<path d="M19.8215 26.7852H11.4644C10.6951 26.7852 10.0715 27.4088 10.0715 28.178V36.5352C10.0715 37.3044 10.6951 37.928 11.4644 37.928H19.8215C20.5908 37.928 21.2144 37.3044 21.2144 36.5352V28.178C21.2144 27.4088 20.5908 26.7852 19.8215 26.7852Z" stroke="#0C674B" stroke-width="1.5" stroke-linecap="round" stroke-linejoin="round"/>
<path d="M36.5359 10.0703H28.1787C27.4095 10.0703 26.7859 10.6939 26.7859 11.4632V19.8203C26.7859 20.5896 27.4095 21.2132 28.1787 21.2132H36.5359C37.3051 21.2132 37.9287 20.5896 37.9287 19.8203V11.4632C37.9287 10.6939 37.3051 10.0703 36.5359 10.0703Z" stroke="#0C674B" stroke-width="1.5" stroke-linecap="round" stroke-linejoin="round"/>
<path d="M26.7859 26.7852V32.3566" stroke="#0C674B" stroke-width="1.5" stroke-linecap="round" stroke-linejoin="round"/>
<path d="M26.7859 37.928H32.3573V26.7852" stroke="#0C674B" stroke-width="1.5" stroke-linecap="round" stroke-linejoin="round"/>
<path d="M32.3572 29.5703H37.9286" stroke="#0C674B" stroke-width="1.5" stroke-linecap="round" stroke-linejoin="round"/>
<path d="M37.9287 35.1445V37.9302" stroke="#0C674B" stroke-width="1.5" stroke-linecap="round" stroke-linejoin="round"/>
</svg>
