<svg width="73" height="72" viewBox="0 0 73 72" fill="none" xmlns="http://www.w3.org/2000/svg">
<path d="M54.2 63H20.9V24.6L41.75 3L44.675 5.325C44.975 5.575 45.2 5.925 45.35 6.375C45.5 6.825 45.575 7.375 45.575 8.025V8.775L42.2 24.6H64.625C65.825 24.6 66.875 25.05 67.775 25.95C68.675 26.85 69.125 27.9 69.125 29.1V35.25C69.125 35.6 69.1625 35.9625 69.2375 36.3375C69.3125 36.7125 69.275 37.075 69.125 37.425L59.675 59.175C59.225 60.225 58.4875 61.125 57.4625 61.875C56.4375 62.625 55.35 63 54.2 63ZM25.4 58.5H55.175L64.625 36.075V29.1H36.65L40.625 10.425L25.4 26.475V58.5ZM20.9 24.6V29.1H10.925V58.5H20.9V63H6.425V24.6H20.9Z" fill="#0C674B"/>
</svg>
