<svg width="72" height="72" viewBox="0 0 72 72" fill="none" xmlns="http://www.w3.org/2000/svg">
<path d="M16.8 59.925C14.35 59.925 12.2625 59.0625 10.5375 57.3375C8.8125 55.6125 7.95 53.525 7.95 51.075H3V16.5C3 15.3 3.45 14.25 4.35 13.35C5.25 12.45 6.3 12 7.5 12H50.925V24.525H58.8L69 38.1V51.075H63.675C63.675 53.525 62.8125 55.6125 61.0875 57.3375C59.3625 59.0625 57.275 59.925 54.825 59.925C52.375 59.925 50.2875 59.0625 48.5625 57.3375C46.8375 55.6125 45.975 53.525 45.975 51.075H25.65C25.65 53.525 24.7875 55.6125 23.0625 57.3375C21.3375 59.0625 19.25 59.925 16.8 59.925ZM16.8 55.425C18 55.425 19.025 55 19.875 54.15C20.725 53.3 21.15 52.275 21.15 51.075C21.15 49.875 20.725 48.85 19.875 48C19.025 47.15 18 46.725 16.8 46.725C15.6 46.725 14.575 47.15 13.725 48C12.875 48.85 12.45 49.875 12.45 51.075C12.45 52.275 12.875 53.3 13.725 54.15C14.575 55 15.6 55.425 16.8 55.425ZM7.5 46.575H9.15C10 45.225 11.075 44.15 12.375 43.35C13.675 42.55 15.125 42.15 16.725 42.15C18.325 42.15 19.7875 42.5625 21.1125 43.3875C22.4375 44.2125 23.525 45.275 24.375 46.575H46.425V16.5H7.5V46.575ZM54.825 55.425C56.025 55.425 57.05 55 57.9 54.15C58.75 53.3 59.175 52.275 59.175 51.075C59.175 49.875 58.75 48.85 57.9 48C57.05 47.15 56.025 46.725 54.825 46.725C53.625 46.725 52.6 47.15 51.75 48C50.9 48.85 50.475 49.875 50.475 51.075C50.475 52.275 50.9 53.3 51.75 54.15C52.6 55 53.625 55.425 54.825 55.425ZM50.925 40.125H64.875L56.55 29.025H50.925V40.125Z" fill="#0C674B"/>
</svg>
