<svg width="24" height="24" viewBox="0 0 24 24" fill="none" xmlns="http://www.w3.org/2000/svg">
<path d="M18.75 5.25H4.5C4.08579 5.25 3.75 5.58579 3.75 6V12C3.75 12.4142 4.08579 12.75 4.5 12.75H18.75C19.1642 12.75 19.5 12.4142 19.5 12V6C19.5 5.58579 19.1642 5.25 18.75 5.25Z" stroke="#585858" stroke-width="1.5" stroke-linecap="round" stroke-linejoin="round"/>
<path d="M19.5 9H21.75C21.9489 9 22.1397 9.07902 22.2803 9.21967C22.421 9.36032 22.5 9.55109 22.5 9.75V14.4375C22.4987 14.6002 22.4451 14.7582 22.3472 14.8881C22.2493 15.0181 22.1123 15.1132 21.9562 15.1594L12.5438 17.8406C12.3877 17.8868 12.2507 17.9819 12.1528 18.1119C12.0549 18.2418 12.0013 18.3998 12 18.5625V21.75" stroke="#585858" stroke-width="1.5" stroke-linecap="round" stroke-linejoin="round"/>
<path d="M3.75 9H1.5" stroke="#585858" stroke-width="1.5" stroke-linecap="round" stroke-linejoin="round"/>
</svg>
