<svg width="24" height="24" viewBox="0 0 24 24" fill="none" xmlns="http://www.w3.org/2000/svg">
<path d="M20.7739 14.0067C20.9294 13.324 21.0049 12.6255 20.9989 11.9254C20.9614 6.96603 16.8551 2.95353 11.9051 3.00041C9.79044 3.02271 7.75114 3.78897 6.14503 5.16476C4.53893 6.54056 3.46859 8.438 3.12183 10.5242C2.77507 12.6104 3.17402 14.752 4.24869 16.5734C5.32336 18.3948 7.00511 19.7796 8.99887 20.4848C9.33802 20.607 9.70165 20.6455 10.0589 20.5971C10.4161 20.5488 10.7564 20.4149 11.0509 20.207C11.3453 19.999 11.5852 19.7231 11.7503 19.4026C11.9153 19.0821 12.0006 18.7265 11.9989 18.366V18.0004C11.9976 17.7046 12.055 17.4114 12.1676 17.1379C12.2802 16.8644 12.4459 16.6158 12.6551 16.4067C12.8643 16.1975 13.1128 16.0318 13.3864 15.9192C13.6599 15.8065 13.953 15.7492 14.2489 15.7504H18.5801C19.0891 15.7507 19.5832 15.5785 19.9816 15.2618C20.3801 14.945 20.6593 14.5026 20.7739 14.0067Z" stroke="#585858" stroke-width="1.5" stroke-linecap="round" stroke-linejoin="round"/>
<path d="M12 8.25C12.6213 8.25 13.125 7.74632 13.125 7.125C13.125 6.50368 12.6213 6 12 6C11.3787 6 10.875 6.50368 10.875 7.125C10.875 7.74632 11.3787 8.25 12 8.25Z" fill="#585858"/>
<path d="M7.78125 10.6875C8.40257 10.6875 8.90625 10.1838 8.90625 9.5625C8.90625 8.94118 8.40257 8.4375 7.78125 8.4375C7.15993 8.4375 6.65625 8.94118 6.65625 9.5625C6.65625 10.1838 7.15993 10.6875 7.78125 10.6875Z" fill="#585858"/>
<path d="M7.78125 15.5625C8.40257 15.5625 8.90625 15.0588 8.90625 14.4375C8.90625 13.8162 8.40257 13.3125 7.78125 13.3125C7.15993 13.3125 6.65625 13.8162 6.65625 14.4375C6.65625 15.0588 7.15993 15.5625 7.78125 15.5625Z" fill="#585858"/>
<path d="M16.2188 10.6875C16.8401 10.6875 17.3438 10.1838 17.3438 9.5625C17.3438 8.94118 16.8401 8.4375 16.2188 8.4375C15.5974 8.4375 15.0938 8.94118 15.0938 9.5625C15.0938 10.1838 15.5974 10.6875 16.2188 10.6875Z" fill="#585858"/>
</svg>
