<svg width="15" height="16" viewBox="0 0 15 16" fill="none" xmlns="http://www.w3.org/2000/svg">
<path d="M9.71312 1.47096L10.4041 0.210963C10.4501 0.127963 10.4341 0.0639631 10.3561 0.0189631C10.2711 -0.0190369 10.2061 -3.68729e-05 10.1611 0.0769631L9.46112 1.34696C8.84452 1.07686 8.17828 0.938569 7.50512 0.940963C6.81712 0.940963 6.16512 1.07596 5.54912 1.34496L4.84912 0.0749631C4.80312 -3.68729e-05 4.73912 -0.0180369 4.65412 0.0199631C4.57612 0.0659631 4.56012 0.129963 4.60512 0.212963L5.29612 1.47196C4.61696 1.8062 4.03939 2.31576 3.62312 2.94796C3.21347 3.56105 2.99652 4.28262 3.00012 5.01996H12.0001C12.0001 4.26996 11.7921 3.57996 11.3771 2.94796C10.9627 2.31747 10.3885 1.80816 9.71312 1.47196V1.47096ZM5.72012 3.30296C5.68537 3.3384 5.64379 3.36642 5.59789 3.38533C5.552 3.40423 5.50275 3.41364 5.45312 3.41296C5.40402 3.41411 5.35523 3.4049 5.30991 3.38595C5.2646 3.367 5.22379 3.33873 5.19012 3.30296C5.15554 3.26834 5.12826 3.22714 5.10988 3.1818C5.0915 3.13646 5.0824 3.08789 5.08312 3.03896C5.08249 2.9899 5.09163 2.94121 5.11 2.89572C5.12837 2.85022 5.15561 2.80883 5.19012 2.77396C5.22382 2.73825 5.26465 2.71001 5.30995 2.69106C5.35525 2.67211 5.40403 2.66288 5.45312 2.66396C5.55612 2.66396 5.64612 2.70096 5.72012 2.77396C5.756 2.80806 5.78447 2.84919 5.80374 2.89479C5.82301 2.94038 5.83267 2.98946 5.83212 3.03896C5.83254 3.08829 5.82281 3.13718 5.80354 3.1826C5.78428 3.22801 5.75588 3.26898 5.72012 3.30296ZM9.82112 3.30296C9.78753 3.33855 9.74687 3.36672 9.70175 3.38566C9.65663 3.4046 9.60805 3.4139 9.55912 3.41296C9.50931 3.41383 9.45986 3.40452 9.41377 3.38561C9.36769 3.36669 9.32596 3.33857 9.29112 3.30296C9.25526 3.26905 9.2268 3.2281 9.20753 3.18267C9.18826 3.13724 9.17858 3.08831 9.17912 3.03896C9.17912 2.93596 9.21612 2.84796 9.29112 2.77396C9.32599 2.7384 9.36773 2.71031 9.41381 2.6914C9.45988 2.67249 9.50932 2.66315 9.55912 2.66396C9.66312 2.66396 9.74912 2.70096 9.82112 2.77396C9.85577 2.80873 9.8831 2.8501 9.90147 2.89562C9.91985 2.94114 9.92892 2.98988 9.92812 3.03896C9.92812 3.14096 9.89312 3.22896 9.82112 3.30296ZM3.00012 11.77C3.00012 12.064 3.10412 12.314 3.31112 12.52C3.51912 12.724 3.77112 12.827 4.07112 12.827H4.82912L4.83912 15.009C4.83912 15.285 4.93612 15.519 5.13112 15.712C5.22223 15.8049 5.33125 15.8783 5.45157 15.9278C5.5719 15.9773 5.70102 16.0018 5.83112 16C5.9628 16.0025 6.09362 15.9783 6.21566 15.9288C6.3377 15.8793 6.44843 15.8055 6.54112 15.712C6.63563 15.6212 6.71036 15.512 6.76061 15.391C6.81086 15.27 6.83555 15.1399 6.83312 15.009V12.827H8.17612V15.009C8.17612 15.285 8.27312 15.519 8.46812 15.712C8.56078 15.8056 8.67149 15.8794 8.79355 15.9289C8.9156 15.9784 9.04644 16.0026 9.17812 16C9.3098 16.0025 9.44062 15.9783 9.56266 15.9288C9.6847 15.8793 9.79543 15.8055 9.88812 15.712C9.98263 15.6212 10.0574 15.512 10.1076 15.391C10.1579 15.27 10.1825 15.1399 10.1801 15.009V12.827H10.9401C11.2311 12.827 11.4801 12.724 11.6891 12.519C11.8961 12.314 12.0001 12.064 12.0001 11.769V5.36496H3.00012V11.769V11.77ZM13.4951 5.18296C13.3656 5.18075 13.2368 5.20416 13.1164 5.25187C12.9959 5.29958 12.886 5.37064 12.7931 5.46096C12.6987 5.54801 12.6238 5.65404 12.5733 5.7721C12.5228 5.89016 12.4979 6.01758 12.5001 6.14596V10.209C12.5001 10.48 12.5981 10.71 12.7931 10.899C12.8851 10.991 12.9947 11.0635 13.1153 11.1123C13.2359 11.1611 13.365 11.1851 13.4951 11.183C13.7751 11.183 14.0121 11.088 14.2071 10.899C14.3015 10.8108 14.3763 10.7039 14.4267 10.585C14.4772 10.4662 14.5022 10.3381 14.5001 10.209V6.14596C14.5024 6.01758 14.4774 5.89016 14.4269 5.7721C14.3764 5.65404 14.3015 5.54801 14.2071 5.46096C14.1126 5.36998 14.0011 5.29858 13.8789 5.25087C13.7567 5.20316 13.6263 5.18008 13.4951 5.18296ZM0.79312 5.46596C0.886877 5.37362 0.998187 5.301 1.12048 5.2524C1.24277 5.20379 1.37355 5.18018 1.50512 5.18296C1.77812 5.18296 2.01212 5.27696 2.20712 5.46596C2.30074 5.55256 2.37518 5.65781 2.42565 5.77493C2.47611 5.89205 2.50148 6.01844 2.50012 6.14596V10.209C2.50235 10.3376 2.47791 10.4654 2.42835 10.5841C2.37878 10.7029 2.30516 10.8101 2.21212 10.899C2.11954 10.9916 2.00918 11.0645 1.88767 11.1133C1.76616 11.1621 1.63603 11.1858 1.50512 11.183C1.37349 11.1856 1.24268 11.1618 1.12039 11.113C0.998107 11.0642 0.886828 10.9914 0.79312 10.899C0.698783 10.8108 0.62397 10.7039 0.573503 10.585C0.523037 10.4662 0.498039 10.3381 0.50012 10.209V6.14596C0.50012 5.88196 0.59812 5.65496 0.79312 5.46596Z" fill="#DADADA"/>
</svg>
