<svg width="13" height="16" viewBox="0 0 13 16" fill="none" xmlns="http://www.w3.org/2000/svg">
<path d="M9.68205 0.00800701C9.64805 -0.029993 8.42305 0.023007 7.35705 1.18001C6.29105 2.33601 6.45505 3.66201 6.47905 3.69601C6.50305 3.73001 7.99905 3.78301 8.95405 2.43801C9.90905 1.09301 9.71605 0.047007 9.68205 0.00800701ZM12.996 11.741C12.948 11.645 10.671 10.507 10.883 8.31901C11.095 6.13001 12.558 5.53001 12.581 5.46501C12.604 5.40001 11.984 4.67501 11.327 4.30801C10.8447 4.04926 10.3108 3.90102 9.76405 3.87401C9.65605 3.87101 9.28105 3.77901 8.51005 3.99001C8.00205 4.12901 6.85705 4.57901 6.54205 4.59701C6.22605 4.61501 5.28605 4.07501 4.27505 3.93201C3.62805 3.80701 2.94205 4.06301 2.45105 4.26001C1.96105 4.45601 1.02905 5.01401 0.377048 6.49701C-0.274952 7.97901 0.0660479 10.327 0.310048 11.057C0.554048 11.786 0.935048 12.981 1.58305 13.853C2.15905 14.837 2.92305 15.52 3.24205 15.752C3.56105 15.984 4.46105 16.138 5.08505 15.819C5.58705 15.511 6.49305 15.334 6.85105 15.347C7.20805 15.36 7.91205 15.501 8.63305 15.886C9.20405 16.083 9.74405 16.001 10.285 15.781C10.826 15.56 11.609 14.722 12.523 13.023C12.87 12.233 13.028 11.806 12.996 11.741Z" fill="#DADADA"/>
</svg>
