<svg width="28" height="28" viewBox="0 0 28 28" fill="none" xmlns="http://www.w3.org/2000/svg">
<path d="M16.9417 17.2376C16.1388 17.9731 15.0884 18.3792 13.9995 18.3751C13.1165 18.375 12.2542 18.1077 11.5259 17.6083C10.7976 17.109 10.2375 16.4009 9.91919 15.5773C9.60085 14.7536 9.5392 13.8529 9.74235 12.9936C9.94549 12.1343 10.4039 11.3565 11.0573 10.7626" stroke="#111111" stroke-linecap="round" stroke-linejoin="round"/>
<path d="M8.09375 7.50305C3.63125 9.75618 1.75 13.9999 1.75 13.9999C1.75 13.9999 5.25 21.8749 14 21.8749C16.0503 21.8916 18.0751 21.4192 19.9062 20.4968" stroke="#111111" stroke-linecap="round" stroke-linejoin="round"/>
<path d="M22.817 18.4953C25.2014 16.3625 26.2514 14 26.2514 14C26.2514 14 22.7514 6.12503 14.0014 6.12503C13.2428 6.12353 12.4855 6.18573 11.7373 6.31096" stroke="#111111" stroke-linecap="round" stroke-linejoin="round"/>
<path d="M14.8203 9.7016C15.7507 9.87788 16.5985 10.352 17.2358 11.0524C17.8731 11.7528 18.2653 12.6415 18.3531 13.5844" stroke="#111111" stroke-linecap="round" stroke-linejoin="round"/>
</svg>
