<svg width="29" height="28" viewBox="0 0 29 28" fill="none" xmlns="http://www.w3.org/2000/svg">
<path d="M5.75 4.375L23.25 23.625" stroke="#111111" stroke-linecap="round" stroke-linejoin="round"/>
<path d="M17.4417 17.2376C16.6388 17.9731 15.5884 18.3792 14.4995 18.3751C13.6165 18.375 12.7542 18.1077 12.0259 17.6083C11.2976 17.109 10.7375 16.4009 10.4192 15.5773C10.1009 14.7536 10.0392 13.8529 10.2423 12.9936C10.4455 12.1343 10.9039 11.3565 11.5573 10.7626" stroke="#111111" stroke-linecap="round" stroke-linejoin="round"/>
<path d="M8.59375 7.50305C4.13125 9.75618 2.25 13.9999 2.25 13.9999C2.25 13.9999 5.75 21.8749 14.5 21.8749C16.5503 21.8916 18.5751 21.4192 20.4062 20.4968" stroke="#111111" stroke-linecap="round" stroke-linejoin="round"/>
<path d="M23.317 18.4953C25.7014 16.3625 26.7514 14 26.7514 14C26.7514 14 23.2514 6.12503 14.5014 6.12503C13.7428 6.12353 12.9855 6.18573 12.2373 6.31096" stroke="#111111" stroke-linecap="round" stroke-linejoin="round"/>
<path d="M15.3203 9.7016C16.2507 9.87788 17.0985 10.352 17.7358 11.0524C18.3731 11.7528 18.7653 12.6415 18.8531 13.5844" stroke="#111111" stroke-linecap="round" stroke-linejoin="round"/>
</svg>
