<svg width="22" height="23" viewBox="0 0 22 23" fill="none" xmlns="http://www.w3.org/2000/svg">
<path d="M13.625 20.7499V15.4999C13.625 15.2679 13.5328 15.0453 13.3687 14.8812C13.2046 14.7171 12.9821 14.6249 12.75 14.6249H9.25C9.01794 14.6249 8.79538 14.7171 8.63128 14.8812C8.46719 15.0453 8.375 15.2679 8.375 15.4999V20.7499C8.375 20.982 8.28281 21.2045 8.11872 21.3686C7.95462 21.5327 7.73206 21.6249 7.5 21.6249H2.25C2.01794 21.6249 1.79538 21.5327 1.63128 21.3686C1.46719 21.2045 1.375 20.982 1.375 20.7499V10.6371C1.37501 10.5152 1.40051 10.3946 1.44986 10.2831C1.49921 10.1716 1.57132 10.0716 1.66156 9.98961L10.4116 1.72742C10.5727 1.58078 10.7827 1.49951 11.0005 1.49951C11.2184 1.49951 11.4284 1.58078 11.5895 1.72742L20.3395 9.98961C20.4298 10.0716 20.5019 10.1716 20.5512 10.2831C20.6006 10.3946 20.6261 10.5152 20.6261 10.6371V20.7499C20.6261 20.982 20.5339 21.2045 20.3698 21.3686C20.2057 21.5327 19.9832 21.6249 19.7511 21.6249H14.5C14.2679 21.6249 14.0454 21.5327 13.8813 21.3686C13.7172 21.2045 13.625 20.982 13.625 20.7499Z" stroke="#111111" stroke-width="1.5" stroke-linecap="round" stroke-linejoin="round"/>
</svg>
