<svg aria-hidden="true" style="position: absolute; width: 0; height: 0; overflow: hidden;" version="1.1" xmlns="http://www.w3.org/2000/svg" xmlns:xlink="http://www.w3.org/1999/xlink">
<defs>
<symbol id="icon-eye" viewBox="0 0 32 32">
<path stroke-width="1.1429" stroke-miterlimit="4" stroke-linecap="round" stroke-linejoin="round" d="M19.362 19.7c-0.918 0.841-2.118 1.305-3.363 1.3-1.009-0-1.995-0.306-2.827-0.876s-1.472-1.38-1.836-2.321c-0.364-0.941-0.434-1.971-0.202-2.953s0.756-1.871 1.503-2.55" fill="none"></path>
<path stroke-width="1.1429" stroke-miterlimit="4" stroke-linecap="round" stroke-linejoin="round" d="M9.25 8.575c-5.1 2.575-7.25 7.425-7.25 7.425s4 9 14 9c2.343 0.019 4.657-0.521 6.75-1.575" fill="none"></path>
<path stroke-width="1.1429" stroke-miterlimit="4" stroke-linecap="round" stroke-linejoin="round" d="M26.077 21.137c2.725-2.438 3.925-5.137 3.925-5.137s-4-9-14-9c-0.867-0.002-1.732 0.069-2.588 0.213" fill="none"></path>
<path stroke-width="1.1429" stroke-miterlimit="4" stroke-linecap="round" stroke-linejoin="round" d="M16.938 11.088c1.063 0.201 2.032 0.743 2.761 1.544s1.177 1.816 1.277 2.894" fill="none"></path>
</symbol>
<symbol id="icon-EyeSlash" viewBox="0 0 33 32">
<path stroke-width="1.1429" stroke-miterlimit="4" stroke-linecap="round" stroke-linejoin="round" d="M6.571 5l20 22" fill="none"></path>
<path stroke-width="1.1429" stroke-miterlimit="4" stroke-linecap="round" stroke-linejoin="round" d="M19.933 19.7c-0.918 0.841-2.118 1.305-3.363 1.3-1.009-0-1.995-0.306-2.827-0.876s-1.472-1.38-1.836-2.321c-0.364-0.941-0.434-1.971-0.202-2.953s0.756-1.871 1.503-2.55" fill="none"></path>
<path stroke-width="1.1429" stroke-miterlimit="4" stroke-linecap="round" stroke-linejoin="round" d="M9.821 8.575c-5.1 2.575-7.25 7.425-7.25 7.425s4 9 14 9c2.343 0.019 4.657-0.521 6.75-1.575" fill="none"></path>
<path stroke-width="1.1429" stroke-miterlimit="4" stroke-linecap="round" stroke-linejoin="round" d="M26.648 21.137c2.725-2.438 3.925-5.137 3.925-5.137s-4-9-14-9c-0.867-0.002-1.732 0.069-2.588 0.213" fill="none"></path>
<path stroke-width="1.1429" stroke-miterlimit="4" stroke-linecap="round" stroke-linejoin="round" d="M17.509 11.088c1.063 0.201 2.032 0.743 2.761 1.544s1.177 1.816 1.277 2.894" fill="none"></path>
</symbol>
</defs>
</svg>
